# 3ds Max Wavefront OBJ Exporter v0.97b - (c)2007 guruware
# File Created: 27.05.2020 10:17:56

mtllib LE.mtl

#
# object Box067
#

v  -19.4756 0.0000 2.5160
v  -17.2756 0.0000 2.5160
v  -17.2756 0.0000 11.0160
v  -19.4756 0.0000 11.0160
v  -19.4756 2.0000 2.5160
v  -19.4756 2.0000 11.0160
v  -17.2756 2.0000 11.0160
v  -17.2756 2.0000 2.5160
v  -21.6755 0.0000 2.5160
v  -19.4755 0.0000 2.5160
v  -19.4755 0.0000 11.0160
v  -21.6755 0.0000 11.0160
v  -21.6755 2.0000 2.5160
v  -21.6755 2.0000 11.0160
v  -19.4755 2.0000 11.0160
v  -19.4755 2.0000 2.5160
# 16 vertices

vn 0.0000 -1.0000 -0.0000
vn 0.0000 1.0000 -0.0000
vn -1.0000 0.0000 -0.0000
vn -0.0000 0.0000 1.0000
vn 1.0000 0.0000 0.0000
vn 0.0000 0.0000 -1.0000
# 6 vertex normals

vt 1.0000 0.0000 0.0000
vt 1.0000 1.0000 0.0000
vt 0.0000 1.0000 0.0000
vt 0.0000 0.0000 0.0000
# 4 texture coords

o Box067
g Box067
usemtl Material__2200
s 2
f 1/1/1 2/2/1 3/3/1 
f 3/3/1 4/4/1 1/1/1 
s 4
f 5/4/2 6/1/2 7/2/2 
f 7/2/2 8/3/2 5/4/2 
s 8
f 1/4/3 4/1/3 6/2/3 
f 6/2/3 5/3/3 1/4/3 
s 16
f 4/4/4 3/1/4 7/2/4 
f 7/2/4 6/3/4 4/4/4 
s 32
f 3/4/5 2/1/5 8/2/5 
f 8/2/5 7/3/5 3/4/5 
s 64
f 2/4/6 1/1/6 5/2/6 
f 5/2/6 8/3/6 2/4/6 
usemtl Material__2201
s 2
f 9/1/1 10/2/1 11/3/1 
f 11/3/1 12/4/1 9/1/1 
s 4
f 13/4/2 14/1/2 15/2/2 
f 15/2/2 16/3/2 13/4/2 
s 8
f 9/4/3 12/1/3 14/2/3 
f 14/2/3 13/3/3 9/4/3 
s 16
f 12/4/4 11/1/4 15/2/4 
f 15/2/4 14/3/4 12/4/4 
s 32
f 11/4/5 10/1/5 16/2/5 
f 16/2/5 15/3/5 11/4/5 
s 64
f 10/4/6 9/1/6 13/2/6 
f 13/2/6 16/3/6 10/4/6 
# 24 faces

