# 3ds Max Wavefront OBJ Exporter v0.97b - (c)2007 guruware
# File Created: 27.05.2020 10:18:23

mtllib LE.mtl

#
# object Box031
#

v  0.0575 0.0000 -19.2694
v  0.0575 0.0000 -21.4694
v  8.5575 0.0000 -21.4694
v  8.5575 0.0000 -19.2694
v  0.0575 2.0000 -19.2694
v  8.5575 2.0000 -19.2694
v  8.5575 2.0000 -21.4694
v  0.0575 2.0000 -21.4694
v  0.0575 0.0000 -17.0695
v  0.0575 0.0000 -19.2695
v  8.5575 0.0000 -19.2695
v  8.5575 0.0000 -17.0695
v  0.0575 2.0000 -17.0695
v  8.5575 2.0000 -17.0695
v  8.5575 2.0000 -19.2695
v  0.0575 2.0000 -19.2695
v  -8.4425 0.0000 -19.2694
v  -8.4425 0.0000 -21.4694
v  -8.4425 2.0000 -19.2694
v  -8.4425 2.0000 -21.4694
v  -8.4425 0.0000 -17.0695
v  -8.4425 0.0000 -19.2695
v  -8.4425 2.0000 -17.0695
v  -8.4425 2.0000 -19.2695
# 24 vertices

vn 0.0000 -1.0000 -0.0000
vn 0.0000 1.0000 -0.0000
vn 0.0000 0.0000 1.0000
vn 1.0000 0.0000 -0.0000
vn 0.0000 0.0000 -1.0000
vn -1.0000 0.0000 -0.0000
# 6 vertex normals

vt 1.0000 0.0000 0.0000
vt 1.0000 1.0000 0.0000
vt 0.0000 1.0000 0.0000
vt 0.0000 0.0000 0.0000
# 4 texture coords

o Box031
g Box031
usemtl Material__2200
s 2
f 1/1/1 2/2/1 3/3/1 
f 3/3/1 4/4/1 1/1/1 
s 4
f 5/4/2 6/1/2 7/2/2 
f 7/2/2 8/3/2 5/4/2 
s 8
f 1/4/3 4/1/3 6/2/3 
f 6/2/3 5/3/3 1/4/3 
s 16
f 4/4/4 3/1/4 7/2/4 
f 7/2/4 6/3/4 4/4/4 
s 32
f 3/4/5 2/1/5 8/2/5 
f 8/2/5 7/3/5 3/4/5 
s 64
f 2/4/6 1/1/6 5/2/6 
f 5/2/6 8/3/6 2/4/6 
usemtl Material__2201
s 2
f 9/1/1 10/2/1 11/3/1 
f 11/3/1 12/4/1 9/1/1 
s 4
f 13/4/2 14/1/2 15/2/2 
f 15/2/2 16/3/2 13/4/2 
s 8
f 9/4/3 12/1/3 14/2/3 
f 14/2/3 13/3/3 9/4/3 
s 16
f 12/4/4 11/1/4 15/2/4 
f 15/2/4 14/3/4 12/4/4 
s 32
f 11/4/5 10/1/5 16/2/5 
f 16/2/5 15/3/5 11/4/5 
s 64
f 10/4/6 9/1/6 13/2/6 
f 13/2/6 16/3/6 10/4/6 
usemtl Material__2200
s 2
f 17/1/1 18/2/1 2/3/1 
f 2/3/1 1/4/1 17/1/1 
s 4
f 19/4/2 5/1/2 8/2/2 
f 8/2/2 20/3/2 19/4/2 
s 8
f 17/4/3 1/1/3 5/2/3 
f 5/2/3 19/3/3 17/4/3 
s 16
f 1/4/4 2/1/4 8/2/4 
f 8/2/4 5/3/4 1/4/4 
s 32
f 2/4/5 18/1/5 20/2/5 
f 20/2/5 8/3/5 2/4/5 
s 64
f 18/4/6 17/1/6 19/2/6 
f 19/2/6 20/3/6 18/4/6 
usemtl Material__2201
s 2
f 21/1/1 22/2/1 10/3/1 
f 10/3/1 9/4/1 21/1/1 
s 4
f 23/4/2 13/1/2 16/2/2 
f 16/2/2 24/3/2 23/4/2 
s 8
f 21/4/3 9/1/3 13/2/3 
f 13/2/3 23/3/3 21/4/3 
s 16
f 9/4/4 10/1/4 16/2/4 
f 16/2/4 13/3/4 9/4/4 
s 32
f 10/4/5 22/1/5 24/2/5 
f 24/2/5 16/3/5 10/4/5 
s 64
f 22/4/6 21/1/6 23/2/6 
f 23/2/6 24/3/6 22/4/6 
# 48 faces

