# 3ds Max Wavefront OBJ Exporter v0.97b - (c)2007 guruware
# File Created: 23.05.2020 17:04:44

mtllib LE.mtl

#
# object laberintoCompletoEgipto_Box507
#

v  -26.3757 2.0174 18.0754
v  -26.3757 2.0174 15.9929
v  -28.3930 2.0174 15.9929
v  -28.3930 2.0174 18.0754
v  -28.3930 0.0000 15.9929
v  -28.3930 0.0000 18.0754
v  -26.3757 2.0174 20.2754
v  -26.3757 2.0174 18.1929
v  -28.3930 2.0174 18.1929
v  -28.3930 2.0174 20.2754
v  -28.3930 0.0000 18.1929
v  -28.3930 0.0000 20.2754
v  -26.3757 0.0000 20.2754
v  -24.2594 2.0174 18.0754
v  -24.2594 2.0174 15.9929
v  -26.2768 2.0174 15.9929
v  -26.2768 2.0174 18.0754
v  -24.2594 2.0174 20.2754
v  -24.2594 2.0174 18.1929
v  -26.2768 2.0174 18.1929
v  -26.2768 2.0174 20.2754
v  -26.2768 0.0000 20.2754
v  -24.2594 0.0000 20.2754
v  -22.1184 2.0174 18.2241
v  -24.2008 2.0174 18.2241
v  -24.2008 2.0174 20.2415
v  -22.1184 2.0174 20.2415
v  -24.2008 0.0000 20.2415
v  -22.1184 0.0000 20.2415
v  -22.1184 2.0174 16.1079
v  -24.2008 2.0174 16.1079
v  -24.2008 2.0174 18.1252
v  -22.1184 2.0174 18.1252
v  -22.1184 0.0000 16.1079
v  -24.2008 0.0000 16.1079
v  -19.9184 2.0174 18.2241
v  -22.0008 2.0174 18.2241
v  -22.0008 2.0174 20.2415
v  -19.9184 2.0174 20.2415
v  -22.0008 0.0000 20.2415
v  -19.9184 0.0000 20.2415
v  -19.9184 2.0174 16.1079
v  -22.0008 2.0174 16.1079
v  -22.0008 2.0174 18.1252
v  -19.9184 2.0174 18.1252
v  -19.9184 0.0000 16.1079
v  -22.0008 0.0000 16.1079
v  -17.7184 2.0174 16.1079
v  -19.8008 2.0174 16.1079
v  -19.8008 2.0174 18.1252
v  -17.7184 2.0174 18.1252
v  -17.7184 0.0000 16.1079
v  -19.8008 0.0000 16.1079
v  -17.7184 2.0174 18.2241
v  -19.8008 2.0174 18.2241
v  -19.8008 2.0174 20.2415
v  -17.7184 2.0174 20.2415
v  -19.8008 0.0000 20.2415
v  -17.7184 0.0000 20.2415
v  -15.5184 2.0174 16.1079
v  -17.6008 2.0174 16.1079
v  -17.6008 2.0174 18.1252
v  -15.5184 2.0174 18.1252
v  -15.5184 0.0000 16.1079
v  -17.6008 0.0000 16.1079
v  -15.5184 2.0174 18.2241
v  -17.6008 2.0174 18.2241
v  -17.6008 2.0174 20.2415
v  -15.5184 2.0174 20.2415
v  -17.6008 0.0000 20.2415
v  -15.5184 0.0000 20.2415
v  -13.2911 2.0174 16.1079
v  -15.3735 2.0174 16.1079
v  -15.3735 2.0174 18.1252
v  -13.2911 2.0174 18.1252
v  -13.2911 0.0000 16.1079
v  -15.3735 0.0000 16.1079
v  -13.3184 2.0174 18.2241
v  -15.4008 2.0174 18.2241
v  -15.4008 2.0174 20.2415
v  -13.3184 2.0174 20.2415
v  -15.4008 0.0000 20.2415
v  -13.3184 0.0000 20.2415
v  -11.1184 2.0174 18.2241
v  -13.2008 2.0174 18.2241
v  -13.2008 2.0174 20.2415
v  -11.1184 2.0174 20.2415
v  -13.2008 0.0000 20.2415
v  -11.1184 0.0000 20.2415
v  -11.1184 0.0000 18.2241
v  -11.1184 2.0174 16.1079
v  -13.2008 2.0174 16.1079
v  -13.2008 2.0174 18.1252
v  -11.1184 2.0174 18.1252
v  -11.1184 0.0000 16.1079
v  -13.2008 0.0000 16.1079
v  -11.1184 0.0000 18.1252
# 97 vertices

vn 0.0000 1.0000 -0.0000
vn -1.0000 0.0000 -0.0000
vn 0.0000 0.0000 1.0000
vn 0.0000 0.0000 -1.0000
vn 1.0000 0.0000 -0.0000
# 5 vertex normals

vt 0.0000 0.0000 0.0000
vt 1.0000 0.0000 0.0000
vt 1.0000 1.0000 0.0000
vt 0.0000 1.0000 0.0000
# 4 texture coords

o laberintoCompletoEgipto_Box507
g laberintoCompletoEgipto_Box507
usemtl laberintoCompletoEgipto_Material__25
s off
f 1/1/1 2/2/1 3/3/1 
f 3/3/1 4/4/1 1/1/1 
f 5/1/2 6/2/2 4/3/2 
f 4/3/2 3/4/2 5/1/2 
usemtl laberintoCompletoEgipto_Material__31
f 7/1/1 8/2/1 9/3/1 
f 9/3/1 10/4/1 7/1/1 
f 11/1/2 12/2/2 10/3/2 
f 10/3/2 9/4/2 11/1/2 
f 12/1/3 13/2/3 7/3/3 
f 7/3/3 10/4/3 12/1/3 
usemtl laberintoCompletoEgipto_Material__25
f 14/1/1 15/2/1 16/3/1 
f 16/3/1 17/4/1 14/1/1 
f 18/1/1 19/2/1 20/3/1 
f 20/3/1 21/4/1 18/1/1 
f 22/1/3 23/2/3 18/3/3 
f 18/3/3 21/4/3 22/1/3 
usemtl laberintoCompletoEgipto_Material__27
f 24/1/1 25/2/1 26/3/1 
f 26/3/1 27/4/1 24/1/1 
f 28/1/3 29/2/3 27/3/3 
f 27/3/3 26/4/3 28/1/3 
usemtl laberintoCompletoEgipto_Material__25
f 30/1/1 31/2/1 32/3/1 
f 32/3/1 33/4/1 30/1/1 
f 34/1/4 35/2/4 31/3/4 
f 31/3/4 30/4/4 34/1/4 
f 36/1/1 37/2/1 38/3/1 
f 38/3/1 39/4/1 36/1/1 
f 40/1/3 41/2/3 39/3/3 
f 39/3/3 38/4/3 40/1/3 
f 42/1/1 43/2/1 44/3/1 
f 44/3/1 45/4/1 42/1/1 
f 46/1/4 47/2/4 43/3/4 
f 43/3/4 42/4/4 46/1/4 
f 48/1/1 49/2/1 50/3/1 
f 50/3/1 51/4/1 48/1/1 
f 52/1/4 53/2/4 49/3/4 
f 49/3/4 48/4/4 52/1/4 
usemtl laberintoCompletoEgipto_Material__28
f 54/1/1 55/2/1 56/3/1 
f 56/3/1 57/4/1 54/1/1 
f 58/1/3 59/2/3 57/3/3 
f 57/3/3 56/4/3 58/1/3 
usemtl laberintoCompletoEgipto_Material__25
f 60/1/1 61/2/1 62/3/1 
f 62/3/1 63/4/1 60/1/1 
f 64/1/4 65/2/4 61/3/4 
f 61/3/4 60/4/4 64/1/4 
f 66/1/1 67/2/1 68/3/1 
f 68/3/1 69/4/1 66/1/1 
f 70/1/3 71/2/3 69/3/3 
f 69/3/3 68/4/3 70/1/3 
f 72/1/1 73/2/1 74/3/1 
f 74/3/1 75/4/1 72/1/1 
f 76/1/4 77/2/4 73/3/4 
f 73/3/4 72/4/4 76/1/4 
usemtl laberintoCompletoEgipto_Material__33
f 78/1/1 79/2/1 80/3/1 
f 80/3/1 81/4/1 78/1/1 
f 82/1/3 83/2/3 81/3/3 
f 81/3/3 80/4/3 82/1/3 
usemtl laberintoCompletoEgipto_Material__25
f 84/1/1 85/2/1 86/3/1 
f 86/3/1 87/4/1 84/1/1 
f 88/1/3 89/2/3 87/3/3 
f 87/3/3 86/4/3 88/1/3 
f 89/1/5 90/2/5 84/3/5 
f 84/3/5 87/4/5 89/1/5 
f 91/1/1 92/2/1 93/3/1 
f 93/3/1 94/4/1 91/1/1 
f 95/1/4 96/2/4 92/3/4 
f 92/3/4 91/4/4 95/1/4 
f 97/1/5 95/2/5 91/3/5 
f 91/3/5 94/4/5 97/1/5 
# 68 faces

