# 3ds Max Wavefront OBJ Exporter v0.97b - (c)2007 guruware
# File Created: 27.05.2020 10:18:36

mtllib LE.mtl

#
# object Box033
#

v  22.0145 0.0000 -19.2691
v  22.0145 0.0000 -21.4691
v  30.5145 0.0000 -21.4691
v  30.5145 0.0000 -19.2691
v  22.0145 2.0000 -19.2691
v  30.5145 2.0000 -19.2691
v  30.5145 2.0000 -21.4691
v  22.0145 2.0000 -21.4691
v  22.0145 0.0000 -17.0691
v  30.5145 0.0000 -17.0691
v  22.0145 2.0000 -17.0691
v  30.5145 2.0000 -17.0691
v  13.5144 0.0000 -19.2688
v  13.5144 0.0000 -21.4688
v  22.0144 0.0000 -21.4688
v  22.0144 0.0000 -19.2688
v  13.5144 2.0000 -19.2688
v  22.0144 2.0000 -19.2688
v  22.0144 2.0000 -21.4688
v  13.5144 2.0000 -21.4688
v  13.5144 0.0000 -17.0689
v  13.5144 0.0000 -19.2689
v  22.0144 0.0000 -19.2689
v  22.0144 0.0000 -17.0689
v  13.5144 2.0000 -17.0689
v  22.0144 2.0000 -17.0689
v  22.0144 2.0000 -19.2689
v  13.5144 2.0000 -19.2689
# 28 vertices

vn 0.0000 -1.0000 -0.0000
vn 0.0000 1.0000 -0.0000
vn 0.0000 0.0000 1.0000
vn 1.0000 0.0000 -0.0000
vn 0.0000 0.0000 -1.0000
vn -1.0000 0.0000 -0.0000
# 6 vertex normals

vt 1.0000 0.0000 0.0000
vt 1.0000 1.0000 0.0000
vt 0.0000 1.0000 0.0000
vt 0.0000 0.0000 0.0000
# 4 texture coords

o Box033
g Box033
usemtl Material__2200
s 2
f 1/1/1 2/2/1 3/3/1 
f 3/3/1 4/4/1 1/1/1 
s 4
f 5/4/2 6/1/2 7/2/2 
f 7/2/2 8/3/2 5/4/2 
s 8
f 1/4/3 4/1/3 6/2/3 
f 6/2/3 5/3/3 1/4/3 
s 16
f 4/4/4 3/1/4 7/2/4 
f 7/2/4 6/3/4 4/4/4 
s 32
f 3/4/5 2/1/5 8/2/5 
f 8/2/5 7/3/5 3/4/5 
s 64
f 2/4/6 1/1/6 5/2/6 
f 5/2/6 8/3/6 2/4/6 
usemtl Material__2201
s 2
f 9/1/1 1/2/1 4/3/1 
f 4/3/1 10/4/1 9/1/1 
s 4
f 11/4/2 12/1/2 6/2/2 
f 6/2/2 5/3/2 11/4/2 
s 8
f 9/4/3 10/1/3 12/2/3 
f 12/2/3 11/3/3 9/4/3 
s 16
f 10/4/4 4/1/4 6/2/4 
f 6/2/4 12/3/4 10/4/4 
s 32
f 4/4/5 1/1/5 5/2/5 
f 5/2/5 6/3/5 4/4/5 
s 64
f 1/4/6 9/1/6 11/2/6 
f 11/2/6 5/3/6 1/4/6 
usemtl Material__2200
s 2
f 13/1/1 14/2/1 15/3/1 
f 15/3/1 16/4/1 13/1/1 
s 4
f 17/4/2 18/1/2 19/2/2 
f 19/2/2 20/3/2 17/4/2 
s 8
f 13/4/3 16/1/3 18/2/3 
f 18/2/3 17/3/3 13/4/3 
s 16
f 16/4/4 15/1/4 19/2/4 
f 19/2/4 18/3/4 16/4/4 
s 32
f 15/4/5 14/1/5 20/2/5 
f 20/2/5 19/3/5 15/4/5 
s 64
f 14/4/6 13/1/6 17/2/6 
f 17/2/6 20/3/6 14/4/6 
usemtl Material__2201
s 2
f 21/1/1 22/2/1 23/3/1 
f 23/3/1 24/4/1 21/1/1 
s 4
f 25/4/2 26/1/2 27/2/2 
f 27/2/2 28/3/2 25/4/2 
s 8
f 21/4/3 24/1/3 26/2/3 
f 26/2/3 25/3/3 21/4/3 
s 16
f 24/4/4 23/1/4 27/2/4 
f 27/2/4 26/3/4 24/4/4 
s 32
f 23/4/5 22/1/5 28/2/5 
f 28/2/5 27/3/5 23/4/5 
s 64
f 22/4/6 21/1/6 25/2/6 
f 25/2/6 28/3/6 22/4/6 
# 48 faces

