# 3ds Max Wavefront OBJ Exporter v0.97b - (c)2007 guruware
# File Created: 23.05.2020 17:05:25

mtllib LE.mtl

#
# object laberintoCompletoEgipto_Box608
#

v  -11.1184 2.0174 -19.1304
v  -13.2008 2.0174 -19.1304
v  -13.2008 2.0174 -17.1130
v  -11.1184 2.0174 -17.1130
v  -11.1184 0.0000 -19.1304
v  -13.2008 0.0000 -19.1304
v  -11.1184 0.0000 -17.1130
v  -11.1184 2.0174 -17.0141
v  -13.2008 2.0174 -17.0141
v  -13.2008 2.0174 -14.9967
v  -11.1184 2.0174 -14.9967
v  -13.2008 0.0000 -14.9967
v  -11.1184 0.0000 -14.9967
v  -11.1184 0.0000 -17.0141
v  -13.3184 2.0174 -17.0141
v  -15.4008 2.0174 -17.0141
v  -15.4008 2.0174 -14.9967
v  -13.3184 2.0174 -14.9967
v  -15.4008 0.0000 -14.9967
v  -13.3184 0.0000 -14.9967
v  -13.3184 2.0174 -19.1304
v  -15.4008 2.0174 -19.1304
v  -15.4008 2.0174 -17.1130
v  -13.3184 2.0174 -17.1130
v  -13.3184 0.0000 -19.1304
v  -15.4008 0.0000 -19.1304
v  -15.5184 2.0174 -17.0141
v  -17.6008 2.0174 -17.0141
v  -17.6008 2.0174 -14.9967
v  -15.5184 2.0174 -14.9967
v  -17.6008 0.0000 -14.9967
v  -15.5184 0.0000 -14.9967
v  -15.5184 2.0174 -19.1304
v  -17.6008 2.0174 -19.1304
v  -17.6008 2.0174 -17.1130
v  -15.5184 2.0174 -17.1130
v  -15.5184 0.0000 -19.1304
v  -17.6008 0.0000 -19.1304
v  -17.7184 2.0174 -17.0141
v  -19.8008 2.0174 -17.0141
v  -19.8008 2.0174 -14.9967
v  -17.7184 2.0174 -14.9967
v  -19.8008 0.0000 -14.9967
v  -17.7184 0.0000 -14.9967
v  -17.7184 2.0174 -19.1304
v  -19.8008 2.0174 -19.1304
v  -19.8008 2.0174 -17.1130
v  -17.7184 2.0174 -17.1130
v  -17.7184 0.0000 -19.1304
v  -19.8008 0.0000 -19.1304
v  -19.9184 2.0174 -17.0141
v  -22.0008 2.0174 -17.0141
v  -22.0008 2.0174 -14.9967
v  -19.9184 2.0174 -14.9967
v  -22.0008 0.0000 -14.9967
v  -19.9184 0.0000 -14.9967
v  -19.9184 2.0174 -19.1304
v  -22.0008 2.0174 -19.1304
v  -22.0008 2.0174 -17.1130
v  -19.9184 2.0174 -17.1130
v  -19.9184 0.0000 -19.1304
v  -22.0008 0.0000 -19.1304
v  -22.1184 2.0174 -19.1304
v  -24.2008 2.0174 -19.1304
v  -24.2008 2.0174 -17.1130
v  -22.1184 2.0174 -17.1130
v  -22.1184 0.0000 -19.1304
v  -24.2008 0.0000 -19.1304
v  -22.1184 2.0174 -17.0141
v  -24.2008 2.0174 -17.0141
v  -24.2008 2.0174 -14.9967
v  -22.1184 2.0174 -14.9967
v  -24.2008 0.0000 -14.9967
v  -22.1184 0.0000 -14.9967
v  -24.2594 2.0174 -17.0833
v  -24.2594 2.0174 -19.1657
v  -26.2768 2.0174 -19.1657
v  -26.2768 2.0174 -17.0833
v  -24.2594 0.0000 -19.1657
v  -26.2768 0.0000 -19.1657
v  -24.2594 2.0174 -14.8833
v  -24.2594 2.0174 -16.9657
v  -26.2768 2.0174 -16.9657
v  -26.2768 2.0174 -14.8833
v  -26.3757 2.0174 -14.8833
v  -26.3757 2.0174 -16.9657
v  -28.3930 2.0174 -16.9657
v  -28.3930 2.0174 -14.8833
v  -28.3930 0.0000 -16.9657
v  -28.3930 0.0000 -14.8833
v  -26.3757 2.0174 -17.0833
v  -26.3757 2.0174 -19.1657
v  -28.3930 2.0174 -19.1657
v  -28.3930 2.0174 -17.0833
v  -26.3757 0.0000 -19.1657
v  -28.3930 0.0000 -19.1657
v  -28.3930 0.0000 -17.0833
# 97 vertices

vn 0.0000 1.0000 -0.0000
vn 0.0000 0.0000 -1.0000
vn 1.0000 0.0000 -0.0000
vn 0.0000 0.0000 1.0000
vn -1.0000 0.0000 -0.0000
# 5 vertex normals

vt 0.0000 0.0000 0.0000
vt 1.0000 0.0000 0.0000
vt 1.0000 1.0000 0.0000
vt 0.0000 1.0000 0.0000
# 4 texture coords

o laberintoCompletoEgipto_Box608
g laberintoCompletoEgipto_Box608
usemtl laberintoCompletoEgipto_Material__25
s off
f 1/1/1 2/2/1 3/3/1 
f 3/3/1 4/4/1 1/1/1 
f 5/1/2 6/2/2 2/3/2 
f 2/3/2 1/4/2 5/1/2 
f 7/1/3 5/2/3 1/3/3 
f 1/3/3 4/4/3 7/1/3 
f 8/1/1 9/2/1 10/3/1 
f 10/3/1 11/4/1 8/1/1 
f 12/1/4 13/2/4 11/3/4 
f 11/3/4 10/4/4 12/1/4 
f 13/1/3 14/2/3 8/3/3 
f 8/3/3 11/4/3 13/1/3 
f 15/1/1 16/2/1 17/3/1 
f 17/3/1 18/4/1 15/1/1 
f 19/1/4 20/2/4 18/3/4 
f 18/3/4 17/4/4 19/1/4 
usemtl laberintoCompletoEgipto_Material__33
f 21/1/1 22/2/1 23/3/1 
f 23/3/1 24/4/1 21/1/1 
f 25/1/2 26/2/2 22/3/2 
f 22/3/2 21/4/2 25/1/2 
usemtl laberintoCompletoEgipto_Material__25
f 27/1/1 28/2/1 29/3/1 
f 29/3/1 30/4/1 27/1/1 
f 31/1/4 32/2/4 30/3/4 
f 30/3/4 29/4/4 31/1/4 
f 33/1/1 34/2/1 35/3/1 
f 35/3/1 36/4/1 33/1/1 
f 37/1/2 38/2/2 34/3/2 
f 34/3/2 33/4/2 37/1/2 
f 39/1/1 40/2/1 41/3/1 
f 41/3/1 42/4/1 39/1/1 
f 43/1/4 44/2/4 42/3/4 
f 42/3/4 41/4/4 43/1/4 
usemtl laberintoCompletoEgipto_Material__28
f 45/1/1 46/2/1 47/3/1 
f 47/3/1 48/4/1 45/1/1 
f 49/1/2 50/2/2 46/3/2 
f 46/3/2 45/4/2 49/1/2 
usemtl laberintoCompletoEgipto_Material__25
f 51/1/1 52/2/1 53/3/1 
f 53/3/1 54/4/1 51/1/1 
f 55/1/4 56/2/4 54/3/4 
f 54/3/4 53/4/4 55/1/4 
f 57/1/1 58/2/1 59/3/1 
f 59/3/1 60/4/1 57/1/1 
f 61/1/2 62/2/2 58/3/2 
f 58/3/2 57/4/2 61/1/2 
usemtl laberintoCompletoEgipto_Material__27
f 63/1/1 64/2/1 65/3/1 
f 65/3/1 66/4/1 63/1/1 
f 67/1/2 68/2/2 64/3/2 
f 64/3/2 63/4/2 67/1/2 
usemtl laberintoCompletoEgipto_Material__25
f 69/1/1 70/2/1 71/3/1 
f 71/3/1 72/4/1 69/1/1 
f 73/1/4 74/2/4 72/3/4 
f 72/3/4 71/4/4 73/1/4 
f 75/1/1 76/2/1 77/3/1 
f 77/3/1 78/4/1 75/1/1 
f 79/1/2 80/2/2 77/3/2 
f 77/3/2 76/4/2 79/1/2 
f 81/1/1 82/2/1 83/3/1 
f 83/3/1 84/4/1 81/1/1 
f 85/1/1 86/2/1 87/3/1 
f 87/3/1 88/4/1 85/1/1 
f 89/1/5 90/2/5 88/3/5 
f 88/3/5 87/4/5 89/1/5 
usemtl laberintoCompletoEgipto_Material__31
f 91/1/1 92/2/1 93/3/1 
f 93/3/1 94/4/1 91/1/1 
f 95/1/2 96/2/2 93/3/2 
f 93/3/2 92/4/2 95/1/2 
f 96/1/5 97/2/5 94/3/5 
f 94/3/5 93/4/5 96/1/5 
# 68 faces

