# 3ds Max Wavefront OBJ Exporter v0.97b - (c)2007 guruware
# File Created: 23.05.2020 17:05:48

mtllib LE.mtl

#
# object laberintoCompletoEgipto_Box658
#

v  -4.5653 2.0174 -19.1174
v  -6.6477 2.0174 -19.1174
v  -6.6477 2.0174 -17.1001
v  -4.5653 2.0174 -17.1001
v  -4.5653 0.0000 -19.1174
v  -6.6477 0.0000 -19.1174
v  -6.6477 0.0000 -17.1001
v  -2.3513 2.0174 -19.1174
v  -4.4337 2.0174 -19.1174
v  -4.4337 2.0174 -17.1001
v  -2.3513 2.0174 -17.1001
v  -2.3513 0.0000 -19.1174
v  -4.4337 0.0000 -19.1174
v  -0.1598 2.0174 -19.1174
v  -2.2422 2.0174 -19.1174
v  -2.2422 2.0174 -17.1001
v  -0.1598 2.0174 -17.1001
v  -0.1598 0.0000 -19.1174
v  -2.2422 0.0000 -19.1174
v  -4.5653 2.0174 -17.0012
v  -6.6477 2.0174 -17.0012
v  -6.6477 2.0174 -14.9838
v  -4.5653 2.0174 -14.9838
v  -6.6477 0.0000 -17.0012
v  -6.6477 0.0000 -14.9838
v  -4.5653 0.0000 -14.9838
v  -2.3513 2.0174 -17.0012
v  -4.4337 2.0174 -17.0012
v  -4.4337 2.0174 -14.9838
v  -2.3513 2.0174 -14.9838
v  -4.4337 0.0000 -14.9838
v  -2.3513 0.0000 -14.9838
v  -0.1598 2.0174 -17.0012
v  -2.2422 2.0174 -17.0012
v  -2.2422 2.0174 -14.9838
v  -0.1598 2.0174 -14.9838
v  -2.2422 0.0000 -14.9838
v  -0.1598 0.0000 -14.9838
v  2.0402 2.0174 -19.1174
v  -0.0422 2.0174 -19.1174
v  -0.0422 2.0174 -17.1001
v  2.0402 2.0174 -17.1001
v  2.0402 0.0000 -19.1174
v  -0.0422 0.0000 -19.1174
v  2.0402 2.0174 -17.0012
v  -0.0422 2.0174 -17.0012
v  -0.0422 2.0174 -14.9838
v  2.0402 2.0174 -14.9838
v  -0.0422 0.0000 -14.9838
v  2.0402 0.0000 -14.9838
v  4.2402 2.0174 -19.1174
v  2.1578 2.0174 -19.1174
v  2.1578 2.0174 -17.1001
v  4.2402 2.0174 -17.1001
v  4.2402 0.0000 -19.1174
v  2.1578 0.0000 -19.1174
v  4.2402 2.0174 -17.0012
v  2.1578 2.0174 -17.0012
v  2.1578 2.0174 -14.9838
v  4.2402 2.0174 -14.9838
v  2.1578 0.0000 -14.9838
v  4.2402 0.0000 -14.9838
v  6.4402 2.0174 -19.1174
v  4.3578 2.0174 -19.1174
v  4.3578 2.0174 -17.1001
v  6.4402 2.0174 -17.1001
v  6.4402 0.0000 -19.1174
v  4.3578 0.0000 -19.1174
v  6.4402 0.0000 -17.1001
v  6.4402 2.0174 -17.0012
v  4.3578 2.0174 -17.0012
v  4.3578 2.0174 -14.9838
v  6.4402 2.0174 -14.9838
v  4.3578 0.0000 -14.9838
v  6.4402 0.0000 -14.9838
v  6.4402 0.0000 -17.0012
# 76 vertices

vn 0.0000 1.0000 -0.0000
vn 0.0000 0.0000 -1.0000
vn -1.0000 0.0000 -0.0000
vn 0.0000 0.0000 1.0000
vn 1.0000 0.0000 -0.0000
# 5 vertex normals

vt 0.0000 0.0000 0.0000
vt 1.0000 0.0000 0.0000
vt 1.0000 1.0000 0.0000
vt 0.0000 1.0000 0.0000
# 4 texture coords

o laberintoCompletoEgipto_Box658
g laberintoCompletoEgipto_Box658
usemtl laberintoCompletoEgipto_Material__25
s off
f 1/1/1 2/2/1 3/3/1 
f 3/3/1 4/4/1 1/1/1 
f 5/1/2 6/2/2 2/3/2 
f 2/3/2 1/4/2 5/1/2 
f 6/1/3 7/2/3 3/3/3 
f 3/3/3 2/4/3 6/1/3 
usemtl laberintoCompletoEgipto_Material__33
f 8/1/1 9/2/1 10/3/1 
f 10/3/1 11/4/1 8/1/1 
f 12/1/2 13/2/2 9/3/2 
f 9/3/2 8/4/2 12/1/2 
usemtl laberintoCompletoEgipto_Material__25
f 14/1/1 15/2/1 16/3/1 
f 16/3/1 17/4/1 14/1/1 
f 18/1/2 19/2/2 15/3/2 
f 15/3/2 14/4/2 18/1/2 
f 20/1/1 21/2/1 22/3/1 
f 22/3/1 23/4/1 20/1/1 
f 24/1/3 25/2/3 22/3/3 
f 22/3/3 21/4/3 24/1/3 
f 25/1/4 26/2/4 23/3/4 
f 23/3/4 22/4/4 25/1/4 
usemtl laberintoCompletoEgipto_Material__28
f 27/1/1 28/2/1 29/3/1 
f 29/3/1 30/4/1 27/1/1 
f 31/1/4 32/2/4 30/3/4 
f 30/3/4 29/4/4 31/1/4 
usemtl laberintoCompletoEgipto_Material__25
f 33/1/1 34/2/1 35/3/1 
f 35/3/1 36/4/1 33/1/1 
f 37/1/4 38/2/4 36/3/4 
f 36/3/4 35/4/4 37/1/4 
f 39/1/1 40/2/1 41/3/1 
f 41/3/1 42/4/1 39/1/1 
f 43/1/2 44/2/2 40/3/2 
f 40/3/2 39/4/2 43/1/2 
f 45/1/1 46/2/1 47/3/1 
f 47/3/1 48/4/1 45/1/1 
f 49/1/4 50/2/4 48/3/4 
f 48/3/4 47/4/4 49/1/4 
usemtl laberintoCompletoEgipto_Material__31
f 51/1/1 52/2/1 53/3/1 
f 53/3/1 54/4/1 51/1/1 
f 55/1/2 56/2/2 52/3/2 
f 52/3/2 51/4/2 55/1/2 
usemtl laberintoCompletoEgipto_Material__27
f 57/1/1 58/2/1 59/3/1 
f 59/3/1 60/4/1 57/1/1 
f 61/1/4 62/2/4 60/3/4 
f 60/3/4 59/4/4 61/1/4 
usemtl laberintoCompletoEgipto_Material__25
f 63/1/1 64/2/1 65/3/1 
f 65/3/1 66/4/1 63/1/1 
f 67/1/2 68/2/2 64/3/2 
f 64/3/2 63/4/2 67/1/2 
f 69/1/5 67/2/5 63/3/5 
f 63/3/5 66/4/5 69/1/5 
f 70/1/1 71/2/1 72/3/1 
f 72/3/1 73/4/1 70/1/1 
f 74/1/4 75/2/4 73/3/4 
f 73/3/4 72/4/4 74/1/4 
f 75/1/5 76/2/5 70/3/5 
f 70/3/5 73/4/5 75/1/5 
# 56 faces

