# 3ds Max Wavefront OBJ Exporter v0.97b - (c)2007 guruware
# File Created: 23.05.2020 17:07:02

mtllib LE.mtl

#
# object laberintoCompletoEgipto_Box761
#

v  -28.5138 2.0174 28.9501
v  -26.4314 2.0174 28.9501
v  -26.4314 2.0174 26.9328
v  -28.5138 2.0174 26.9328
v  -28.5138 0.0000 28.9501
v  -26.4314 0.0000 28.9501
v  -28.5138 0.0000 26.9328
v  -28.5138 2.0174 26.8339
v  -26.4314 2.0174 26.8339
v  -26.4314 2.0174 24.8165
v  -28.5138 2.0174 24.8165
v  -26.4314 0.0000 24.8165
v  -28.5138 0.0000 24.8165
v  -28.5138 0.0000 26.8339
v  -26.3138 2.0174 28.9501
v  -24.2314 2.0174 28.9501
v  -24.2314 2.0174 26.9328
v  -26.3138 2.0174 26.9328
v  -26.3138 0.0000 28.9501
v  -24.2314 0.0000 28.9501
v  -26.3138 2.0174 26.8339
v  -24.2314 2.0174 26.8339
v  -24.2314 2.0174 24.8165
v  -26.3138 2.0174 24.8165
v  -24.2314 0.0000 24.8165
v  -26.3138 0.0000 24.8165
v  -24.1138 2.0174 28.9501
v  -22.0314 2.0174 28.9501
v  -22.0314 2.0174 26.9328
v  -24.1138 2.0174 26.9328
v  -24.1138 0.0000 28.9501
v  -22.0314 0.0000 28.9501
v  -24.1138 2.0174 26.8339
v  -22.0314 2.0174 26.8339
v  -22.0314 2.0174 24.8165
v  -24.1138 2.0174 24.8165
v  -22.0314 0.0000 24.8165
v  -24.1138 0.0000 24.8165
v  -21.9138 2.0174 28.9501
v  -19.8314 2.0174 28.9501
v  -19.8314 2.0174 26.9328
v  -21.9138 2.0174 26.9328
v  -21.9138 0.0000 28.9501
v  -19.8314 0.0000 28.9501
v  -21.9138 2.0174 26.8339
v  -19.8314 2.0174 26.8339
v  -19.8314 2.0174 24.8165
v  -21.9138 2.0174 24.8165
v  -19.8314 0.0000 24.8165
v  -21.9138 0.0000 24.8165
v  -19.7138 2.0174 28.9501
v  -17.6314 2.0174 28.9501
v  -17.6314 2.0174 26.9328
v  -19.7138 2.0174 26.9328
v  -19.7138 0.0000 28.9501
v  -17.6314 0.0000 28.9501
v  -19.7138 2.0174 26.8339
v  -17.6314 2.0174 26.8339
v  -17.6314 2.0174 24.8165
v  -19.7138 2.0174 24.8165
v  -17.6314 0.0000 24.8165
v  -19.7138 0.0000 24.8165
v  -17.5138 2.0174 28.9501
v  -15.4314 2.0174 28.9501
v  -15.4314 2.0174 26.9328
v  -17.5138 2.0174 26.9328
v  -17.5138 0.0000 28.9501
v  -15.4314 0.0000 28.9501
v  -17.5138 2.0174 26.8339
v  -15.4314 2.0174 26.8339
v  -15.4314 2.0174 24.8165
v  -17.5138 2.0174 24.8165
v  -15.4314 0.0000 24.8165
v  -17.5138 0.0000 24.8165
v  -15.3223 2.0174 28.9501
v  -13.2399 2.0174 28.9501
v  -13.2399 2.0174 26.9328
v  -15.3224 2.0174 26.9328
v  -15.3223 0.0000 28.9501
v  -13.2399 0.0000 28.9501
v  -15.3223 2.0174 26.8339
v  -13.2399 2.0174 26.8339
v  -13.2399 2.0174 24.8165
v  -15.3224 2.0174 24.8165
v  -13.2399 0.0000 24.8165
v  -15.3224 0.0000 24.8165
v  -13.1083 2.0174 28.9501
v  -11.0259 2.0174 28.9501
v  -11.0259 2.0174 26.9328
v  -13.1083 2.0174 26.9328
v  -13.1083 0.0000 28.9501
v  -11.0259 0.0000 28.9501
v  -13.1083 2.0174 26.8339
v  -11.0259 2.0174 26.8339
v  -11.0259 2.0174 24.8165
v  -13.1083 2.0174 24.8165
v  -11.0259 0.0000 24.8165
v  -13.1083 0.0000 24.8165
v  -10.8402 2.0174 28.9501
v  -8.7578 2.0174 28.9501
v  -8.7578 2.0174 26.9328
v  -10.8402 2.0174 26.9328
v  -10.8402 0.0000 28.9501
v  -8.7578 0.0000 28.9501
v  -10.8402 2.0174 26.8339
v  -8.7578 2.0174 26.8339
v  -8.7578 2.0174 24.8165
v  -10.8402 2.0174 24.8165
v  -8.7578 0.0000 24.8165
v  -10.8402 0.0000 24.8165
v  -6.4402 2.0174 28.9501
v  -4.3578 2.0174 28.9501
v  -4.3578 2.0174 26.9328
v  -6.4402 2.0174 26.9328
v  -6.4402 0.0000 28.9501
v  -4.3578 0.0000 28.9501
v  -8.6402 2.0174 28.9501
v  -6.5578 2.0174 28.9501
v  -6.5578 2.0174 26.9328
v  -8.6402 2.0174 26.9328
v  -8.6402 0.0000 28.9501
v  -6.5578 0.0000 28.9501
v  -6.4402 2.0174 26.8339
v  -4.3578 2.0174 26.8339
v  -4.3578 2.0174 24.8165
v  -6.4402 2.0174 24.8165
v  -4.3578 0.0000 24.8165
v  -6.4402 0.0000 24.8165
v  -8.6402 2.0174 26.8339
v  -6.5578 2.0174 26.8339
v  -6.5578 2.0174 24.8165
v  -8.6402 2.0174 24.8165
v  -6.5578 0.0000 24.8165
v  -8.6402 0.0000 24.8165
v  -4.2402 2.0174 28.9501
v  -2.1578 2.0174 28.9501
v  -2.1578 2.0174 26.9328
v  -4.2402 2.0174 26.9328
v  -4.2402 0.0000 28.9501
v  -2.1578 0.0000 28.9501
v  -4.2402 2.0174 26.8339
v  -2.1578 2.0174 26.8339
v  -2.1578 2.0174 24.8165
v  -4.2402 2.0174 24.8165
v  -2.1578 0.0000 24.8165
v  -4.2402 0.0000 24.8165
v  -2.0402 2.0174 28.9501
v  0.0422 2.0174 28.9501
v  0.0422 2.0174 26.9328
v  -2.0402 2.0174 26.9328
v  -2.0402 0.0000 28.9501
v  0.0422 0.0000 28.9501
v  -2.0402 2.0174 26.8339
v  0.0422 2.0174 26.8339
v  0.0422 2.0174 24.8165
v  -2.0402 2.0174 24.8165
v  0.0422 0.0000 24.8165
v  -2.0402 0.0000 24.8165
v  0.1598 2.0174 28.9501
v  2.2422 2.0174 28.9501
v  2.2422 2.0174 26.9328
v  0.1598 2.0174 26.9328
v  0.1598 0.0000 28.9501
v  2.2422 0.0000 28.9501
v  0.1598 2.0174 26.8339
v  2.2422 2.0174 26.8339
v  2.2422 2.0174 24.8165
v  0.1598 2.0174 24.8165
v  2.2422 0.0000 24.8165
v  0.1598 0.0000 24.8165
v  2.3513 2.0174 28.9501
v  4.4337 2.0174 28.9501
v  4.4337 2.0174 26.9328
v  2.3513 2.0174 26.9328
v  2.3513 0.0000 28.9501
v  4.4337 0.0000 28.9501
v  2.3513 2.0174 26.8339
v  4.4337 2.0174 26.8339
v  4.4337 2.0174 24.8165
v  2.3513 2.0174 24.8165
v  4.4337 0.0000 24.8165
v  2.3513 0.0000 24.8165
v  4.5653 2.0174 28.9501
v  6.6477 2.0174 28.9501
v  6.6477 2.0174 26.9328
v  4.5653 2.0174 26.9328
v  4.5653 0.0000 28.9501
v  6.6477 0.0000 28.9501
v  4.5653 2.0174 26.8339
v  6.6477 2.0174 26.8339
v  6.6477 2.0174 24.8165
v  4.5653 2.0174 24.8165
v  6.6477 0.0000 24.8165
v  4.5653 0.0000 24.8165
v  6.7563 2.0174 28.9501
v  8.8387 2.0174 28.9501
v  8.8387 2.0174 26.9328
v  6.7563 2.0174 26.9328
v  6.7563 0.0000 28.9501
v  8.8387 0.0000 28.9501
v  6.7563 2.0174 26.8339
v  8.8387 2.0174 26.8339
v  8.8387 2.0174 24.8165
v  6.7563 2.0174 24.8165
v  8.8387 0.0000 24.8165
v  6.7563 0.0000 24.8165
v  8.9184 2.0174 28.9501
v  11.0008 2.0174 28.9501
v  11.0008 2.0174 26.9328
v  8.9184 2.0174 26.9328
v  8.9184 0.0000 28.9501
v  11.0008 0.0000 28.9501
v  8.9184 2.0174 26.8339
v  11.0008 2.0174 26.8339
v  11.0008 2.0174 24.8165
v  8.9184 2.0174 24.8165
v  11.0008 0.0000 24.8165
v  8.9184 0.0000 24.8165
v  11.1184 2.0174 28.9501
v  13.2008 2.0174 28.9501
v  13.2008 2.0174 26.9328
v  11.1184 2.0174 26.9328
v  11.1184 0.0000 28.9501
v  13.2008 0.0000 28.9501
v  11.1184 2.0174 26.8339
v  13.2008 2.0174 26.8339
v  13.2008 2.0174 24.8165
v  11.1184 2.0174 24.8165
v  13.2008 0.0000 24.8165
v  11.1184 0.0000 24.8165
v  13.3184 2.0174 28.9501
v  15.4008 2.0174 28.9500
v  15.4008 2.0174 26.9327
v  13.3184 2.0174 26.9328
v  13.3184 0.0000 28.9501
v  15.4008 0.0000 28.9500
v  13.3184 2.0174 26.8339
v  15.4008 2.0174 26.8338
v  15.4008 2.0174 24.8164
v  13.3184 2.0174 24.8165
v  15.4008 0.0000 24.8164
v  13.3184 0.0000 24.8165
v  15.5184 2.0174 28.9500
v  17.6008 2.0174 28.9500
v  17.6008 2.0174 26.9327
v  15.5184 2.0174 26.9327
v  15.5184 0.0000 28.9500
v  17.6008 0.0000 28.9500
v  15.5184 2.0174 26.8338
v  17.6008 2.0174 26.8338
v  17.6008 2.0174 24.8164
v  15.5184 2.0174 24.8164
v  17.6008 0.0000 24.8164
v  15.5184 0.0000 24.8164
v  17.7184 2.0174 28.9500
v  19.8008 2.0174 28.9500
v  19.8008 2.0174 26.9327
v  17.7184 2.0174 26.9327
v  17.7184 0.0000 28.9500
v  19.8008 0.0000 28.9500
v  17.7184 2.0174 26.8338
v  19.8008 2.0174 26.8338
v  19.8008 2.0174 24.8164
v  17.7184 2.0174 24.8164
v  19.8008 0.0000 24.8164
v  17.7184 0.0000 24.8164
v  19.9184 2.0174 26.8338
v  22.0008 2.0174 26.8338
v  22.0008 2.0174 24.8164
v  19.9184 2.0174 24.8164
v  22.0008 0.0000 24.8164
v  19.9184 0.0000 24.8164
v  19.9184 2.0174 28.9500
v  22.0008 2.0174 28.9500
v  22.0008 2.0174 26.9327
v  19.9184 2.0174 26.9327
v  19.9184 0.0000 28.9500
v  22.0008 0.0000 28.9500
v  22.1184 2.0174 28.9500
v  24.2008 2.0174 28.9500
v  24.2008 2.0174 26.9327
v  22.1184 2.0174 26.9327
v  22.1184 0.0000 28.9500
v  24.2008 0.0000 28.9500
v  22.1184 2.0174 26.8338
v  24.2008 2.0174 26.8338
v  24.2008 2.0174 24.8164
v  22.1184 2.0174 24.8164
v  24.2008 0.0000 24.8164
v  22.1184 0.0000 24.8164
v  24.3184 2.0174 26.8338
v  26.4008 2.0174 26.8338
v  26.4008 2.0174 24.8164
v  24.3184 2.0174 24.8164
v  26.4008 0.0000 24.8164
v  24.3184 0.0000 24.8164
v  24.3184 2.0174 28.9500
v  26.4008 2.0174 28.9500
v  26.4008 2.0174 26.9327
v  24.3184 2.0174 26.9327
v  24.3184 0.0000 28.9500
v  26.4008 0.0000 28.9500
v  26.5184 2.0174 28.9500
v  28.6008 2.0174 28.9500
v  28.6008 2.0174 26.9327
v  26.5184 2.0174 26.9327
v  26.5184 0.0000 28.9500
v  28.6008 0.0000 28.9500
v  28.6008 0.0000 26.9327
v  26.5184 2.0174 26.8338
v  28.6008 2.0174 26.8338
v  28.6008 2.0174 24.8164
v  26.5184 2.0174 24.8164
v  28.6008 0.0000 26.8338
v  28.6008 0.0000 24.8164
v  26.5184 0.0000 24.8164
# 316 vertices

vn 0.0000 1.0000 -0.0000
vn 0.0000 0.0000 1.0000
vn -1.0000 0.0000 0.0000
vn -0.0000 0.0000 -1.0000
vn 1.0000 0.0000 -0.0000
# 5 vertex normals

vt 0.0000 0.0000 0.0000
vt 1.0000 0.0000 0.0000
vt 1.0000 1.0000 0.0000
vt 0.0000 1.0000 0.0000
# 4 texture coords

o laberintoCompletoEgipto_Box761
g laberintoCompletoEgipto_Box761
usemtl laberintoCompletoEgipto_Material__31
s off
f 1/1/1 2/2/1 3/3/1 
f 3/3/1 4/4/1 1/1/1 
f 5/1/2 6/2/2 2/3/2 
f 2/3/2 1/4/2 5/1/2 
f 7/1/3 5/2/3 1/3/3 
f 1/3/3 4/4/3 7/1/3 
usemtl laberintoCompletoEgipto_Material__25
f 8/1/1 9/2/1 10/3/1 
f 10/3/1 11/4/1 8/1/1 
f 12/1/4 13/2/4 11/3/4 
f 11/3/4 10/4/4 12/1/4 
f 13/1/3 14/2/3 8/3/3 
f 8/3/3 11/4/3 13/1/3 
f 15/1/1 16/2/1 17/3/1 
f 17/3/1 18/4/1 15/1/1 
f 19/1/2 20/2/2 16/3/2 
f 16/3/2 15/4/2 19/1/2 
f 21/1/1 22/2/1 23/3/1 
f 23/3/1 24/4/1 21/1/1 
f 25/1/4 26/2/4 24/3/4 
f 24/3/4 23/4/4 25/1/4 
usemtl laberintoCompletoEgipto_Material__27
f 27/1/1 28/2/1 29/3/1 
f 29/3/1 30/4/1 27/1/1 
f 31/1/2 32/2/2 28/3/2 
f 28/3/2 27/4/2 31/1/2 
usemtl laberintoCompletoEgipto_Material__25
f 33/1/1 34/2/1 35/3/1 
f 35/3/1 36/4/1 33/1/1 
f 37/1/4 38/2/4 36/3/4 
f 36/3/4 35/4/4 37/1/4 
f 39/1/1 40/2/1 41/3/1 
f 41/3/1 42/4/1 39/1/1 
f 43/1/2 44/2/2 40/3/2 
f 40/3/2 39/4/2 43/1/2 
f 45/1/1 46/2/1 47/3/1 
f 47/3/1 48/4/1 45/1/1 
f 49/1/4 50/2/4 48/3/4 
f 48/3/4 47/4/4 49/1/4 
usemtl laberintoCompletoEgipto_Material__28
f 51/1/1 52/2/1 53/3/1 
f 53/3/1 54/4/1 51/1/1 
f 55/1/2 56/2/2 52/3/2 
f 52/3/2 51/4/2 55/1/2 
usemtl laberintoCompletoEgipto_Material__25
f 57/1/1 58/2/1 59/3/1 
f 59/3/1 60/4/1 57/1/1 
f 61/1/4 62/2/4 60/3/4 
f 60/3/4 59/4/4 61/1/4 
f 63/1/1 64/2/1 65/3/1 
f 65/3/1 66/4/1 63/1/1 
f 67/1/2 68/2/2 64/3/2 
f 64/3/2 63/4/2 67/1/2 
f 69/1/1 70/2/1 71/3/1 
f 71/3/1 72/4/1 69/1/1 
f 73/1/4 74/2/4 72/3/4 
f 72/3/4 71/4/4 73/1/4 
usemtl laberintoCompletoEgipto_Material__33
f 75/1/1 76/2/1 77/3/1 
f 77/3/1 78/4/1 75/1/1 
f 79/1/2 80/2/2 76/3/2 
f 76/3/2 75/4/2 79/1/2 
usemtl laberintoCompletoEgipto_Material__25
f 81/1/1 82/2/1 83/3/1 
f 83/3/1 84/4/1 81/1/1 
f 85/1/4 86/2/4 84/3/4 
f 84/3/4 83/4/4 85/1/4 
f 87/1/1 88/2/1 89/3/1 
f 89/3/1 90/4/1 87/1/1 
f 91/1/2 92/2/2 88/3/2 
f 88/3/2 87/4/2 91/1/2 
f 93/1/1 94/2/1 95/3/1 
f 95/3/1 96/4/1 93/1/1 
f 97/1/4 98/2/4 96/3/4 
f 96/3/4 95/4/4 97/1/4 
usemtl laberintoCompletoEgipto_Material__28
f 99/1/1 100/2/1 101/3/1 
f 101/3/1 102/4/1 99/1/1 
f 103/1/2 104/2/2 100/3/2 
f 100/3/2 99/4/2 103/1/2 
usemtl laberintoCompletoEgipto_Material__25
f 105/1/1 106/2/1 107/3/1 
f 107/3/1 108/4/1 105/1/1 
f 109/1/4 110/2/4 108/3/4 
f 108/3/4 107/4/4 109/1/4 
usemtl laberintoCompletoEgipto_Material__27
f 111/1/1 112/2/1 113/3/1 
f 113/3/1 114/4/1 111/1/1 
f 115/1/2 116/2/2 112/3/2 
f 112/3/2 111/4/2 115/1/2 
usemtl laberintoCompletoEgipto_Material__25
f 117/1/1 118/2/1 119/3/1 
f 119/3/1 120/4/1 117/1/1 
f 121/1/2 122/2/2 118/3/2 
f 118/3/2 117/4/2 121/1/2 
f 123/1/1 124/2/1 125/3/1 
f 125/3/1 126/4/1 123/1/1 
f 127/1/4 128/2/4 126/3/4 
f 126/3/4 125/4/4 127/1/4 
f 129/1/1 130/2/1 131/3/1 
f 131/3/1 132/4/1 129/1/1 
f 133/1/4 134/2/4 132/3/4 
f 132/3/4 131/4/4 133/1/4 
f 135/1/1 136/2/1 137/3/1 
f 137/3/1 138/4/1 135/1/1 
f 139/1/2 140/2/2 136/3/2 
f 136/3/2 135/4/2 139/1/2 
f 141/1/1 142/2/1 143/3/1 
f 143/3/1 144/4/1 141/1/1 
f 145/1/4 146/2/4 144/3/4 
f 144/3/4 143/4/4 145/1/4 
usemtl laberintoCompletoEgipto_Material__28
f 147/1/1 148/2/1 149/3/1 
f 149/3/1 150/4/1 147/1/1 
f 151/1/2 152/2/2 148/3/2 
f 148/3/2 147/4/2 151/1/2 
usemtl laberintoCompletoEgipto_Material__25
f 153/1/1 154/2/1 155/3/1 
f 155/3/1 156/4/1 153/1/1 
f 157/1/4 158/2/4 156/3/4 
f 156/3/4 155/4/4 157/1/4 
usemtl laberintoCompletoEgipto_Material__28
f 159/1/1 160/2/1 161/3/1 
f 161/3/1 162/4/1 159/1/1 
f 163/1/2 164/2/2 160/3/2 
f 160/3/2 159/4/2 163/1/2 
usemtl laberintoCompletoEgipto_Material__25
f 165/1/1 166/2/1 167/3/1 
f 167/3/1 168/4/1 165/1/1 
f 169/1/4 170/2/4 168/3/4 
f 168/3/4 167/4/4 169/1/4 
f 171/1/1 172/2/1 173/3/1 
f 173/3/1 174/4/1 171/1/1 
f 175/1/2 176/2/2 172/3/2 
f 172/3/2 171/4/2 175/1/2 
f 177/1/1 178/2/1 179/3/1 
f 179/3/1 180/4/1 177/1/1 
f 181/1/4 182/2/4 180/3/4 
f 180/3/4 179/4/4 181/1/4 
usemtl laberintoCompletoEgipto_Material__27
f 183/1/1 184/2/1 185/3/1 
f 185/3/1 186/4/1 183/1/1 
f 187/1/2 188/2/2 184/3/2 
f 184/3/2 183/4/2 187/1/2 
usemtl laberintoCompletoEgipto_Material__25
f 189/1/1 190/2/1 191/3/1 
f 191/3/1 192/4/1 189/1/1 
f 193/1/4 194/2/4 192/3/4 
f 192/3/4 191/4/4 193/1/4 
f 195/1/1 196/2/1 197/3/1 
f 197/3/1 198/4/1 195/1/1 
f 199/1/2 200/2/2 196/3/2 
f 196/3/2 195/4/2 199/1/2 
f 201/1/1 202/2/1 203/3/1 
f 203/3/1 204/4/1 201/1/1 
f 205/1/4 206/2/4 204/3/4 
f 204/3/4 203/4/4 205/1/4 
usemtl laberintoCompletoEgipto_Material__28
f 207/1/1 208/2/1 209/3/1 
f 209/3/1 210/4/1 207/1/1 
f 211/1/2 212/2/2 208/3/2 
f 208/3/2 207/4/2 211/1/2 
usemtl laberintoCompletoEgipto_Material__25
f 213/1/1 214/2/1 215/3/1 
f 215/3/1 216/4/1 213/1/1 
f 217/1/4 218/2/4 216/3/4 
f 216/3/4 215/4/4 217/1/4 
f 219/1/1 220/2/1 221/3/1 
f 221/3/1 222/4/1 219/1/1 
f 223/1/2 224/2/2 220/3/2 
f 220/3/2 219/4/2 223/1/2 
f 225/1/1 226/2/1 227/3/1 
f 227/3/1 228/4/1 225/1/1 
f 229/1/4 230/2/4 228/3/4 
f 228/3/4 227/4/4 229/1/4 
usemtl laberintoCompletoEgipto_Material__33
f 231/1/1 232/2/1 233/3/1 
f 233/3/1 234/4/1 231/1/1 
f 235/1/2 236/2/2 232/3/2 
f 232/3/2 231/4/2 235/1/2 
usemtl laberintoCompletoEgipto_Material__25
f 237/1/1 238/2/1 239/3/1 
f 239/3/1 240/4/1 237/1/1 
f 241/1/4 242/2/4 240/3/4 
f 240/3/4 239/4/4 241/1/4 
f 243/1/1 244/2/1 245/3/1 
f 245/3/1 246/4/1 243/1/1 
f 247/1/2 248/2/2 244/3/2 
f 244/3/2 243/4/2 247/1/2 
f 249/1/1 250/2/1 251/3/1 
f 251/3/1 252/4/1 249/1/1 
f 253/1/4 254/2/4 252/3/4 
f 252/3/4 251/4/4 253/1/4 
usemtl laberintoCompletoEgipto_Material__28
f 255/1/1 256/2/1 257/3/1 
f 257/3/1 258/4/1 255/1/1 
f 259/1/2 260/2/2 256/3/2 
f 256/3/2 255/4/2 259/1/2 
usemtl laberintoCompletoEgipto_Material__25
f 261/1/1 262/2/1 263/3/1 
f 263/3/1 264/4/1 261/1/1 
f 265/1/4 266/2/4 264/3/4 
f 264/3/4 263/4/4 265/1/4 
f 267/1/1 268/2/1 269/3/1 
f 269/3/1 270/4/1 267/1/1 
f 271/1/4 272/2/4 270/3/4 
f 270/3/4 269/4/4 271/1/4 
f 273/1/1 274/2/1 275/3/1 
f 275/3/1 276/4/1 273/1/1 
f 277/1/2 278/2/2 274/3/2 
f 274/3/2 273/4/2 277/1/2 
usemtl laberintoCompletoEgipto_Material__27
f 279/1/1 280/2/1 281/3/1 
f 281/3/1 282/4/1 279/1/1 
f 283/1/2 284/2/2 280/3/2 
f 280/3/2 279/4/2 283/1/2 
usemtl laberintoCompletoEgipto_Material__25
f 285/1/1 286/2/1 287/3/1 
f 287/3/1 288/4/1 285/1/1 
f 289/1/4 290/2/4 288/3/4 
f 288/3/4 287/4/4 289/1/4 
f 291/1/1 292/2/1 293/3/1 
f 293/3/1 294/4/1 291/1/1 
f 295/1/4 296/2/4 294/3/4 
f 294/3/4 293/4/4 295/1/4 
f 297/1/1 298/2/1 299/3/1 
f 299/3/1 300/4/1 297/1/1 
f 301/1/2 302/2/2 298/3/2 
f 298/3/2 297/4/2 301/1/2 
usemtl laberintoCompletoEgipto_Material__31
f 303/1/1 304/2/1 305/3/1 
f 305/3/1 306/4/1 303/1/1 
f 307/1/2 308/2/2 304/3/2 
f 304/3/2 303/4/2 307/1/2 
f 308/1/5 309/2/5 305/3/5 
f 305/3/5 304/4/5 308/1/5 
usemtl laberintoCompletoEgipto_Material__25
f 310/1/1 311/2/1 312/3/1 
f 312/3/1 313/4/1 310/1/1 
f 314/1/5 315/2/5 312/3/5 
f 312/3/5 311/4/5 314/1/5 
f 315/1/4 316/2/4 313/3/4 
f 313/3/4 312/4/4 315/1/4 
# 216 faces

