# 3ds Max Wavefront OBJ Exporter v0.97b - (c)2007 guruware
# File Created: 27.05.2020 10:20:31

mtllib LE.mtl

#
# object Box060
#

v  21.2120 0.0000 28.0206
v  21.2120 0.0000 25.8206
v  29.7120 0.0000 25.8206
v  29.7120 0.0000 28.0206
v  21.2120 2.0000 28.0206
v  29.7120 2.0000 28.0206
v  29.7120 2.0000 25.8206
v  21.2120 2.0000 25.8206
v  21.2120 0.0000 30.2205
v  21.2120 0.0000 28.0205
v  29.7120 0.0000 28.0205
v  29.7120 0.0000 30.2205
v  21.2120 2.0000 30.2205
v  29.7120 2.0000 30.2205
v  29.7120 2.0000 28.0205
v  21.2120 2.0000 28.0205
v  12.7124 0.0000 28.0206
v  12.7124 0.0000 25.8206
v  21.2124 0.0000 25.8206
v  21.2124 0.0000 28.0206
v  12.7124 2.0000 28.0206
v  21.2124 2.0000 28.0206
v  21.2124 2.0000 25.8206
v  12.7124 2.0000 25.8206
v  12.7124 0.0000 30.2205
v  12.7124 0.0000 28.0205
v  21.2124 0.0000 28.0205
v  21.2124 0.0000 30.2205
v  12.7124 2.0000 30.2205
v  21.2124 2.0000 30.2205
v  21.2124 2.0000 28.0205
v  12.7124 2.0000 28.0205
v  4.2124 0.0000 28.0206
v  4.2124 0.0000 25.8206
v  4.2124 2.0000 28.0206
v  4.2124 2.0000 25.8206
v  4.2124 0.0000 30.2205
v  4.2124 0.0000 28.0205
v  4.2124 2.0000 30.2205
v  4.2124 2.0000 28.0205
v  -4.2876 0.0000 28.0206
v  -4.2876 0.0000 25.8206
v  -4.2876 2.0000 28.0206
v  -4.2876 2.0000 25.8206
v  -4.2876 0.0000 30.2205
v  -4.2876 0.0000 28.0205
v  -4.2876 2.0000 30.2205
v  -4.2876 2.0000 28.0205
v  -12.7876 0.0000 28.0206
v  -12.7876 0.0000 25.8206
v  -12.7876 2.0000 28.0206
v  -12.7876 2.0000 25.8206
v  -12.7876 0.0000 30.2205
v  -12.7876 0.0000 28.0205
v  -12.7876 2.0000 30.2205
v  -12.7876 2.0000 28.0205
v  -21.2879 0.0000 28.0206
v  -21.2879 0.0000 25.8206
v  -12.7879 0.0000 25.8206
v  -12.7879 0.0000 28.0206
v  -21.2879 2.0000 28.0206
v  -12.7879 2.0000 28.0206
v  -12.7879 2.0000 25.8206
v  -21.2879 2.0000 25.8206
v  -21.2879 0.0000 30.2205
v  -21.2879 0.0000 28.0205
v  -12.7879 0.0000 28.0205
v  -12.7879 0.0000 30.2205
v  -21.2879 2.0000 30.2205
v  -12.7879 2.0000 30.2205
v  -12.7879 2.0000 28.0205
v  -21.2879 2.0000 28.0205
v  -29.7880 0.0000 28.0206
v  -29.7880 0.0000 25.8206
v  -21.2880 0.0000 25.8206
v  -21.2880 0.0000 28.0206
v  -29.7880 2.0000 28.0206
v  -21.2880 2.0000 28.0206
v  -21.2880 2.0000 25.8206
v  -29.7880 2.0000 25.8206
v  -29.7880 0.0000 30.2205
v  -29.7880 0.0000 28.0205
v  -21.2880 0.0000 28.0205
v  -21.2880 0.0000 30.2205
v  -29.7880 2.0000 30.2205
v  -21.2880 2.0000 30.2205
v  -21.2880 2.0000 28.0205
v  -29.7880 2.0000 28.0205
# 88 vertices

vn 0.0000 -1.0000 -0.0000
vn 0.0000 1.0000 -0.0000
vn 0.0000 0.0000 1.0000
vn 1.0000 0.0000 -0.0000
vn 0.0000 0.0000 -1.0000
vn -1.0000 0.0000 -0.0000
# 6 vertex normals

vt 1.0000 0.0000 0.0000
vt 1.0000 1.0000 0.0000
vt 0.0000 1.0000 0.0000
vt 0.0000 0.0000 0.0000
# 4 texture coords

o Box060
g Box060
usemtl Material__2200
s 2
f 1/1/1 2/2/1 3/3/1 
f 3/3/1 4/4/1 1/1/1 
s 4
f 5/4/2 6/1/2 7/2/2 
f 7/2/2 8/3/2 5/4/2 
s 8
f 1/4/3 4/1/3 6/2/3 
f 6/2/3 5/3/3 1/4/3 
s 16
f 4/4/4 3/1/4 7/2/4 
f 7/2/4 6/3/4 4/4/4 
s 32
f 3/4/5 2/1/5 8/2/5 
f 8/2/5 7/3/5 3/4/5 
s 64
f 2/4/6 1/1/6 5/2/6 
f 5/2/6 8/3/6 2/4/6 
usemtl Material__2201
s 2
f 9/1/1 10/2/1 11/3/1 
f 11/3/1 12/4/1 9/1/1 
s 4
f 13/4/2 14/1/2 15/2/2 
f 15/2/2 16/3/2 13/4/2 
s 8
f 9/4/3 12/1/3 14/2/3 
f 14/2/3 13/3/3 9/4/3 
s 16
f 12/4/4 11/1/4 15/2/4 
f 15/2/4 14/3/4 12/4/4 
s 32
f 11/4/5 10/1/5 16/2/5 
f 16/2/5 15/3/5 11/4/5 
s 64
f 10/4/6 9/1/6 13/2/6 
f 13/2/6 16/3/6 10/4/6 
usemtl Material__2200
s 2
f 17/1/1 18/2/1 19/3/1 
f 19/3/1 20/4/1 17/1/1 
s 4
f 21/4/2 22/1/2 23/2/2 
f 23/2/2 24/3/2 21/4/2 
s 8
f 17/4/3 20/1/3 22/2/3 
f 22/2/3 21/3/3 17/4/3 
s 16
f 20/4/4 19/1/4 23/2/4 
f 23/2/4 22/3/4 20/4/4 
s 32
f 19/4/5 18/1/5 24/2/5 
f 24/2/5 23/3/5 19/4/5 
s 64
f 18/4/6 17/1/6 21/2/6 
f 21/2/6 24/3/6 18/4/6 
usemtl Material__2201
s 2
f 25/1/1 26/2/1 27/3/1 
f 27/3/1 28/4/1 25/1/1 
s 4
f 29/4/2 30/1/2 31/2/2 
f 31/2/2 32/3/2 29/4/2 
s 8
f 25/4/3 28/1/3 30/2/3 
f 30/2/3 29/3/3 25/4/3 
s 16
f 28/4/4 27/1/4 31/2/4 
f 31/2/4 30/3/4 28/4/4 
s 32
f 27/4/5 26/1/5 32/2/5 
f 32/2/5 31/3/5 27/4/5 
s 64
f 26/4/6 25/1/6 29/2/6 
f 29/2/6 32/3/6 26/4/6 
usemtl Material__2200
s 2
f 33/1/1 34/2/1 18/3/1 
f 18/3/1 17/4/1 33/1/1 
s 4
f 35/4/2 21/1/2 24/2/2 
f 24/2/2 36/3/2 35/4/2 
s 8
f 33/4/3 17/1/3 21/2/3 
f 21/2/3 35/3/3 33/4/3 
s 16
f 17/4/4 18/1/4 24/2/4 
f 24/2/4 21/3/4 17/4/4 
s 32
f 18/4/5 34/1/5 36/2/5 
f 36/2/5 24/3/5 18/4/5 
s 64
f 34/4/6 33/1/6 35/2/6 
f 35/2/6 36/3/6 34/4/6 
usemtl Material__2201
s 2
f 37/1/1 38/2/1 26/3/1 
f 26/3/1 25/4/1 37/1/1 
s 4
f 39/4/2 29/1/2 32/2/2 
f 32/2/2 40/3/2 39/4/2 
s 8
f 37/4/3 25/1/3 29/2/3 
f 29/2/3 39/3/3 37/4/3 
s 16
f 25/4/4 26/1/4 32/2/4 
f 32/2/4 29/3/4 25/4/4 
s 32
f 26/4/5 38/1/5 40/2/5 
f 40/2/5 32/3/5 26/4/5 
s 64
f 38/4/6 37/1/6 39/2/6 
f 39/2/6 40/3/6 38/4/6 
usemtl Material__2200
s 2
f 41/1/1 42/2/1 34/3/1 
f 34/3/1 33/4/1 41/1/1 
s 4
f 43/4/2 35/1/2 36/2/2 
f 36/2/2 44/3/2 43/4/2 
s 8
f 41/4/3 33/1/3 35/2/3 
f 35/2/3 43/3/3 41/4/3 
s 16
f 33/4/4 34/1/4 36/2/4 
f 36/2/4 35/3/4 33/4/4 
s 32
f 34/4/5 42/1/5 44/2/5 
f 44/2/5 36/3/5 34/4/5 
s 64
f 42/4/6 41/1/6 43/2/6 
f 43/2/6 44/3/6 42/4/6 
usemtl Material__2201
s 2
f 45/1/1 46/2/1 38/3/1 
f 38/3/1 37/4/1 45/1/1 
s 4
f 47/4/2 39/1/2 40/2/2 
f 40/2/2 48/3/2 47/4/2 
s 8
f 45/4/3 37/1/3 39/2/3 
f 39/2/3 47/3/3 45/4/3 
s 16
f 37/4/4 38/1/4 40/2/4 
f 40/2/4 39/3/4 37/4/4 
s 32
f 38/4/5 46/1/5 48/2/5 
f 48/2/5 40/3/5 38/4/5 
s 64
f 46/4/6 45/1/6 47/2/6 
f 47/2/6 48/3/6 46/4/6 
usemtl Material__2200
s 2
f 49/1/1 50/2/1 42/3/1 
f 42/3/1 41/4/1 49/1/1 
s 4
f 51/4/2 43/1/2 44/2/2 
f 44/2/2 52/3/2 51/4/2 
s 8
f 49/4/3 41/1/3 43/2/3 
f 43/2/3 51/3/3 49/4/3 
s 16
f 41/4/4 42/1/4 44/2/4 
f 44/2/4 43/3/4 41/4/4 
s 32
f 42/4/5 50/1/5 52/2/5 
f 52/2/5 44/3/5 42/4/5 
s 64
f 50/4/6 49/1/6 51/2/6 
f 51/2/6 52/3/6 50/4/6 
usemtl Material__2201
s 2
f 53/1/1 54/2/1 46/3/1 
f 46/3/1 45/4/1 53/1/1 
s 4
f 55/4/2 47/1/2 48/2/2 
f 48/2/2 56/3/2 55/4/2 
s 8
f 53/4/3 45/1/3 47/2/3 
f 47/2/3 55/3/3 53/4/3 
s 16
f 45/4/4 46/1/4 48/2/4 
f 48/2/4 47/3/4 45/4/4 
s 32
f 46/4/5 54/1/5 56/2/5 
f 56/2/5 48/3/5 46/4/5 
s 64
f 54/4/6 53/1/6 55/2/6 
f 55/2/6 56/3/6 54/4/6 
usemtl Material__2200
s 2
f 57/1/1 58/2/1 59/3/1 
f 59/3/1 60/4/1 57/1/1 
s 4
f 61/4/2 62/1/2 63/2/2 
f 63/2/2 64/3/2 61/4/2 
s 8
f 57/4/3 60/1/3 62/2/3 
f 62/2/3 61/3/3 57/4/3 
s 16
f 60/4/4 59/1/4 63/2/4 
f 63/2/4 62/3/4 60/4/4 
s 32
f 59/4/5 58/1/5 64/2/5 
f 64/2/5 63/3/5 59/4/5 
s 64
f 58/4/6 57/1/6 61/2/6 
f 61/2/6 64/3/6 58/4/6 
usemtl Material__2201
s 2
f 65/1/1 66/2/1 67/3/1 
f 67/3/1 68/4/1 65/1/1 
s 4
f 69/4/2 70/1/2 71/2/2 
f 71/2/2 72/3/2 69/4/2 
s 8
f 65/4/3 68/1/3 70/2/3 
f 70/2/3 69/3/3 65/4/3 
s 16
f 68/4/4 67/1/4 71/2/4 
f 71/2/4 70/3/4 68/4/4 
s 32
f 67/4/5 66/1/5 72/2/5 
f 72/2/5 71/3/5 67/4/5 
s 64
f 66/4/6 65/1/6 69/2/6 
f 69/2/6 72/3/6 66/4/6 
usemtl Material__2200
s 2
f 73/1/1 74/2/1 75/3/1 
f 75/3/1 76/4/1 73/1/1 
s 4
f 77/4/2 78/1/2 79/2/2 
f 79/2/2 80/3/2 77/4/2 
s 8
f 73/4/3 76/1/3 78/2/3 
f 78/2/3 77/3/3 73/4/3 
s 16
f 76/4/4 75/1/4 79/2/4 
f 79/2/4 78/3/4 76/4/4 
s 32
f 75/4/5 74/1/5 80/2/5 
f 80/2/5 79/3/5 75/4/5 
s 64
f 74/4/6 73/1/6 77/2/6 
f 77/2/6 80/3/6 74/4/6 
usemtl Material__2201
s 2
f 81/1/1 82/2/1 83/3/1 
f 83/3/1 84/4/1 81/1/1 
s 4
f 85/4/2 86/1/2 87/2/2 
f 87/2/2 88/3/2 85/4/2 
s 8
f 81/4/3 84/1/3 86/2/3 
f 86/2/3 85/3/3 81/4/3 
s 16
f 84/4/4 83/1/4 87/2/4 
f 87/2/4 86/3/4 84/4/4 
s 32
f 83/4/5 82/1/5 88/2/5 
f 88/2/5 87/3/5 83/4/5 
s 64
f 82/4/6 81/1/6 85/2/6 
f 85/2/6 88/3/6 82/4/6 
# 168 faces

