# 3ds Max Wavefront OBJ Exporter v0.97b - (c)2007 guruware
# File Created: 23.05.2020 17:08:31

mtllib LE.mtl

#
# object laberintoCompletoEgipto_Box191
#

v  24.0456 2.0174 -34.7122
v  26.1280 2.0174 -34.7122
v  26.1280 2.0174 -36.7295
v  24.0456 2.0174 -36.7295
v  26.1280 0.0000 -36.7295
v  24.0456 0.0000 -36.7295
v  24.0456 0.0000 -34.7122
v  26.2456 2.0174 -34.7122
v  28.3280 2.0174 -34.7122
v  28.3280 2.0174 -36.7295
v  26.2456 2.0174 -36.7295
v  28.3280 0.0000 -36.7295
v  26.2456 0.0000 -36.7295
v  30.6936 2.0174 -34.7122
v  32.7760 2.0174 -34.7122
v  32.7760 2.0174 -36.7295
v  30.6936 2.0174 -36.7295
v  32.7760 0.0000 -34.7122
v  32.7760 0.0000 -36.7295
v  30.6936 0.0000 -36.7295
v  28.4936 2.0174 -34.7122
v  30.5760 2.0174 -34.7122
v  30.5760 2.0174 -36.7295
v  28.4936 2.0174 -36.7295
v  30.5760 0.0000 -36.7295
v  28.4936 0.0000 -36.7295
v  30.6936 2.0174 -32.5125
v  32.7760 2.0174 -32.5125
v  32.7760 2.0174 -34.5299
v  30.6936 2.0174 -34.5299
v  30.6936 0.0000 -32.5125
v  32.7760 0.0000 -32.5125
v  32.7760 0.0000 -34.5299
v  28.4936 2.0174 -32.5125
v  30.5760 2.0174 -32.5125
v  30.5760 2.0174 -34.5299
v  28.4936 2.0174 -34.5299
v  28.4936 0.0000 -32.5125
v  30.5760 0.0000 -32.5125
v  26.2456 2.0174 -32.5125
v  28.3280 2.0174 -32.5125
v  28.3280 2.0174 -34.5299
v  26.2456 2.0174 -34.5299
v  26.2456 0.0000 -32.5125
v  28.3280 0.0000 -32.5125
v  24.0456 2.0174 -32.5125
v  26.1280 2.0174 -32.5125
v  26.1280 2.0174 -34.5299
v  24.0456 2.0174 -34.5299
v  24.0456 0.0000 -32.5125
v  26.1280 0.0000 -32.5125
v  24.0456 0.0000 -34.5299
# 52 vertices

vn 0.0000 1.0000 -0.0000
vn 0.0000 0.0000 -1.0000
vn -1.0000 0.0000 -0.0000
vn 1.0000 0.0000 -0.0000
vn 0.0000 0.0000 1.0000
# 5 vertex normals

vt 0.0000 0.0000 0.0000
vt 1.0000 0.0000 0.0000
vt 1.0000 1.0000 0.0000
vt 0.0000 1.0000 0.0000
# 4 texture coords

o laberintoCompletoEgipto_Box191
g laberintoCompletoEgipto_Box191
usemtl laberintoCompletoEgipto_Material__25
s off
f 1/1/1 2/2/1 3/3/1 
f 3/3/1 4/4/1 1/1/1 
f 5/1/2 6/2/2 4/3/2 
f 4/3/2 3/4/2 5/1/2 
f 6/1/3 7/2/3 1/3/3 
f 1/3/3 4/4/3 6/1/3 
usemtl laberintoCompletoEgipto_Material__33
f 8/1/1 9/2/1 10/3/1 
f 10/3/1 11/4/1 8/1/1 
f 12/1/2 13/2/2 11/3/2 
f 11/3/2 10/4/2 12/1/2 
usemtl laberintoCompletoEgipto_Material__31
f 14/1/1 15/2/1 16/3/1 
f 16/3/1 17/4/1 14/1/1 
f 18/1/4 19/2/4 16/3/4 
f 16/3/4 15/4/4 18/1/4 
f 19/1/2 20/2/2 17/3/2 
f 17/3/2 16/4/2 19/1/2 
usemtl laberintoCompletoEgipto_Material__25
f 21/1/1 22/2/1 23/3/1 
f 23/3/1 24/4/1 21/1/1 
f 25/1/2 26/2/2 24/3/2 
f 24/3/2 23/4/2 25/1/2 
f 27/1/1 28/2/1 29/3/1 
f 29/3/1 30/4/1 27/1/1 
f 31/1/5 32/2/5 28/3/5 
f 28/3/5 27/4/5 31/1/5 
f 32/1/4 33/2/4 29/3/4 
f 29/3/4 28/4/4 32/1/4 
f 34/1/1 35/2/1 36/3/1 
f 36/3/1 37/4/1 34/1/1 
f 38/1/5 39/2/5 35/3/5 
f 35/3/5 34/4/5 38/1/5 
f 40/1/1 41/2/1 42/3/1 
f 42/3/1 43/4/1 40/1/1 
f 44/1/5 45/2/5 41/3/5 
f 41/3/5 40/4/5 44/1/5 
f 46/1/1 47/2/1 48/3/1 
f 48/3/1 49/4/1 46/1/1 
f 50/1/5 51/2/5 47/3/5 
f 47/3/5 46/4/5 50/1/5 
f 52/1/3 50/2/3 46/3/3 
f 46/3/3 49/4/3 52/1/3 
# 40 faces

