# 3ds Max Wavefront OBJ Exporter v0.97b - (c)2007 guruware
# File Created: 23.05.2020 17:08:45

mtllib LE.mtl

#
# object laberintoCompletoEgipto_Box195
#

v  33.0032 2.0174 -30.3269
v  35.0856 2.0174 -30.3269
v  35.0856 2.0174 -32.3442
v  33.0032 2.0174 -32.3442
v  35.0856 0.0000 -32.3442
v  33.0032 0.0000 -32.3442
v  33.0032 0.0000 -30.3269
v  35.2032 2.0174 -30.3269
v  37.2856 2.0174 -30.3269
v  37.2856 2.0174 -32.3442
v  35.2032 2.0174 -32.3442
v  37.2856 0.0000 -30.3269
v  37.2856 0.0000 -32.3442
v  35.2032 0.0000 -32.3442
v  35.2032 2.0174 -25.9422
v  37.2856 2.0174 -25.9422
v  37.2856 2.0174 -27.9595
v  35.2032 2.0174 -27.9595
v  37.2856 0.0000 -25.9422
v  37.2856 0.0000 -27.9595
v  35.2032 2.0174 -28.1272
v  37.2856 2.0174 -28.1272
v  37.2856 2.0174 -30.1446
v  35.2032 2.0174 -30.1446
v  37.2856 0.0000 -28.1272
v  37.2856 0.0000 -30.1446
v  33.0032 2.0174 -28.1272
v  35.0856 2.0174 -28.1272
v  35.0856 2.0174 -30.1446
v  33.0032 2.0174 -30.1446
v  33.0032 0.0000 -30.1446
v  33.0032 0.0000 -28.1272
v  33.0032 2.0174 -25.9422
v  35.0856 2.0174 -25.9422
v  35.0856 2.0174 -27.9595
v  33.0032 2.0174 -27.9595
v  33.0032 0.0000 -27.9595
v  33.0032 0.0000 -25.9422
v  35.2032 2.0174 -23.7425
v  37.2856 2.0174 -23.7425
v  37.2856 2.0174 -25.7599
v  35.2032 2.0174 -25.7599
v  35.2032 0.0000 -23.7425
v  37.2856 0.0000 -23.7425
v  37.2856 0.0000 -25.7599
v  33.0032 2.0174 -23.7425
v  35.0856 2.0174 -23.7425
v  35.0856 2.0174 -25.7599
v  33.0032 2.0174 -25.7599
v  33.0032 0.0000 -23.7425
v  35.0856 0.0000 -23.7425
v  33.0032 0.0000 -25.7599
# 52 vertices

vn 0.0000 1.0000 -0.0000
vn 0.0000 0.0000 -1.0000
vn -1.0000 0.0000 -0.0000
vn 1.0000 0.0000 -0.0000
vn 0.0000 0.0000 1.0000
# 5 vertex normals

vt 0.0000 0.0000 0.0000
vt 1.0000 0.0000 0.0000
vt 1.0000 1.0000 0.0000
vt 0.0000 1.0000 0.0000
# 4 texture coords

o laberintoCompletoEgipto_Box195
g laberintoCompletoEgipto_Box195
usemtl laberintoCompletoEgipto_Material__25
s off
f 1/1/1 2/2/1 3/3/1 
f 3/3/1 4/4/1 1/1/1 
f 5/1/2 6/2/2 4/3/2 
f 4/3/2 3/4/2 5/1/2 
f 6/1/3 7/2/3 1/3/3 
f 1/3/3 4/4/3 6/1/3 
usemtl laberintoCompletoEgipto_Material__28
f 8/1/1 9/2/1 10/3/1 
f 10/3/1 11/4/1 8/1/1 
f 12/1/4 13/2/4 10/3/4 
f 10/3/4 9/4/4 12/1/4 
f 13/1/2 14/2/2 11/3/2 
f 11/3/2 10/4/2 13/1/2 
usemtl laberintoCompletoEgipto_Material__27
f 15/1/1 16/2/1 17/3/1 
f 17/3/1 18/4/1 15/1/1 
f 19/1/4 20/2/4 17/3/4 
f 17/3/4 16/4/4 19/1/4 
usemtl laberintoCompletoEgipto_Material__25
f 21/1/1 22/2/1 23/3/1 
f 23/3/1 24/4/1 21/1/1 
f 25/1/4 26/2/4 23/3/4 
f 23/3/4 22/4/4 25/1/4 
f 27/1/1 28/2/1 29/3/1 
f 29/3/1 30/4/1 27/1/1 
f 31/1/3 32/2/3 27/3/3 
f 27/3/3 30/4/3 31/1/3 
f 33/1/1 34/2/1 35/3/1 
f 35/3/1 36/4/1 33/1/1 
f 37/1/3 38/2/3 33/3/3 
f 33/3/3 36/4/3 37/1/3 
f 39/1/1 40/2/1 41/3/1 
f 41/3/1 42/4/1 39/1/1 
f 43/1/5 44/2/5 40/3/5 
f 40/3/5 39/4/5 43/1/5 
f 44/1/4 45/2/4 41/3/4 
f 41/3/4 40/4/4 44/1/4 
f 46/1/1 47/2/1 48/3/1 
f 48/3/1 49/4/1 46/1/1 
f 50/1/5 51/2/5 47/3/5 
f 47/3/5 46/4/5 50/1/5 
f 52/1/3 50/2/3 46/3/3 
f 46/3/3 49/4/3 52/1/3 
# 40 faces

