# 3ds Max Wavefront OBJ Exporter v0.97b - (c)2007 guruware
# File Created: 23.05.2020 17:09:03

mtllib LE.mtl

#
# object laberintoCompletoEgipto_Box274
#

v  35.2071 2.0174 11.4754
v  35.2071 2.0174 9.3929
v  33.1897 2.0174 9.3929
v  33.1897 2.0174 11.4754
v  33.1897 0.0000 9.3929
v  33.1897 0.0000 11.4754
v  37.3234 2.0174 20.2754
v  37.3234 2.0174 18.1929
v  35.3060 2.0174 18.1929
v  35.3060 2.0174 20.2754
v  37.3234 0.0000 20.2754
v  37.3234 0.0000 18.1929
v  35.3060 0.0000 20.2754
v  35.2071 2.0174 -17.0833
v  35.2071 2.0174 -19.1657
v  33.1897 2.0174 -19.1657
v  33.1897 2.0174 -17.0833
v  35.2071 0.0000 -19.1657
v  33.1897 0.0000 -19.1657
v  33.1897 0.0000 -17.0833
v  37.3234 2.0174 -17.0833
v  37.3234 2.0174 -19.1657
v  35.3060 2.0174 -19.1657
v  35.3060 2.0174 -17.0833
v  37.3234 0.0000 -17.0833
v  37.3234 0.0000 -19.1657
v  35.3060 0.0000 -19.1657
v  35.2071 2.0174 -14.8833
v  35.2071 2.0174 -16.9657
v  33.1897 2.0174 -16.9657
v  33.1897 2.0174 -14.8833
v  33.1897 0.0000 -16.9657
v  33.1897 0.0000 -14.8833
v  37.3234 2.0174 -14.8833
v  37.3234 2.0174 -16.9657
v  35.3060 2.0174 -16.9657
v  35.3060 2.0174 -14.8833
v  37.3234 0.0000 -14.8833
v  37.3234 0.0000 -16.9657
v  35.2071 2.0174 -12.6833
v  35.2071 2.0174 -14.7657
v  33.1897 2.0174 -14.7657
v  33.1897 2.0174 -12.6833
v  33.1897 0.0000 -14.7657
v  33.1897 0.0000 -12.6833
v  37.3234 2.0174 -12.6833
v  37.3234 2.0174 -14.7657
v  35.3060 2.0174 -14.7657
v  35.3060 2.0174 -12.6833
v  37.3234 0.0000 -12.6833
v  37.3234 0.0000 -14.7657
v  35.2071 2.0174 -10.4833
v  35.2071 2.0174 -12.5657
v  33.1897 2.0174 -12.5657
v  33.1897 2.0174 -10.4833
v  33.1897 0.0000 -12.5657
v  33.1897 0.0000 -10.4833
v  37.3234 2.0174 -10.4833
v  37.3234 2.0174 -12.5657
v  35.3060 2.0174 -12.5657
v  35.3060 2.0174 -10.4833
v  37.3234 0.0000 -10.4833
v  37.3234 0.0000 -12.5657
v  37.3234 2.0174 -8.2833
v  37.3234 2.0174 -10.3657
v  35.3060 2.0174 -10.3657
v  35.3060 2.0174 -8.2833
v  37.3234 0.0000 -8.2833
v  37.3234 0.0000 -10.3657
v  35.2071 2.0174 -8.2833
v  35.2071 2.0174 -10.3657
v  33.1897 2.0174 -10.3657
v  33.1897 2.0174 -8.2833
v  33.1897 0.0000 -10.3657
v  33.1897 0.0000 -8.2833
v  37.3234 2.0174 -6.0833
v  37.3234 2.0174 -8.1657
v  35.3060 2.0174 -8.1657
v  35.3060 2.0174 -6.0833
v  37.3234 0.0000 -6.0833
v  37.3234 0.0000 -8.1657
v  35.2071 2.0174 -6.0833
v  35.2071 2.0174 -8.1657
v  33.1897 2.0174 -8.1657
v  33.1897 2.0174 -6.0833
v  33.1897 0.0000 -8.1657
v  33.1897 0.0000 -6.0833
v  37.3234 2.0174 -3.8833
v  37.3234 2.0174 -5.9657
v  35.3060 2.0174 -5.9657
v  35.3060 2.0174 -3.8833
v  37.3234 0.0000 -3.8833
v  37.3234 0.0000 -5.9657
v  35.2071 2.0174 -3.8833
v  35.2071 2.0174 -5.9657
v  33.1897 2.0174 -5.9657
v  33.1897 2.0174 -3.8833
v  33.1897 0.0000 -5.9657
v  33.1897 0.0000 -3.8833
v  37.3234 2.0174 -1.6833
v  37.3234 2.0174 -3.7657
v  35.3060 2.0174 -3.7657
v  35.3060 2.0174 -1.6833
v  37.3234 0.0000 -1.6833
v  37.3234 0.0000 -3.7657
v  35.2071 2.0174 -1.6833
v  35.2071 2.0174 -3.7657
v  33.1897 2.0174 -3.7657
v  33.1897 2.0174 -1.6833
v  33.1897 0.0000 -3.7657
v  33.1897 0.0000 -1.6833
v  37.3234 2.0174 0.5167
v  37.3234 2.0174 -1.5657
v  35.3060 2.0174 -1.5657
v  35.3060 2.0174 0.5167
v  37.3234 0.0000 0.5167
v  37.3234 0.0000 -1.5657
v  35.2071 2.0174 0.5167
v  35.2071 2.0174 -1.5657
v  33.1897 2.0174 -1.5657
v  33.1897 2.0174 0.5167
v  33.1897 0.0000 -1.5657
v  33.1897 0.0000 0.5167
v  37.3234 2.0174 2.6788
v  37.3234 2.0174 0.5964
v  35.3060 2.0174 0.5964
v  35.3060 2.0174 2.6788
v  37.3234 0.0000 2.6788
v  37.3234 0.0000 0.5964
v  35.2071 2.0174 2.6788
v  35.2071 2.0174 0.5964
v  33.1897 2.0174 0.5964
v  33.1897 2.0174 2.6788
v  33.1897 0.0000 0.5964
v  33.1897 0.0000 2.6788
v  35.2071 2.0174 4.8698
v  35.2071 2.0174 2.7874
v  33.1897 2.0174 2.7874
v  33.1897 2.0174 4.8698
v  33.1897 0.0000 2.7874
v  33.1897 0.0000 4.8698
v  37.3234 2.0174 4.8698
v  37.3234 2.0174 2.7874
v  35.3060 2.0174 2.7874
v  35.3060 2.0174 4.8698
v  37.3234 0.0000 4.8698
v  37.3234 0.0000 2.7874
v  37.3234 2.0174 7.0839
v  37.3234 2.0174 5.0014
v  35.3060 2.0174 5.0014
v  35.3060 2.0174 7.0839
v  37.3234 0.0000 7.0839
v  37.3234 0.0000 5.0014
v  35.2071 2.0174 7.0839
v  35.2071 2.0174 5.0014
v  33.1897 2.0174 5.0014
v  33.1897 2.0174 7.0839
v  33.1897 0.0000 5.0014
v  33.1897 0.0000 7.0839
v  37.3234 2.0174 9.2754
v  37.3234 2.0174 7.1929
v  35.3060 2.0174 7.1929
v  35.3060 2.0174 9.2754
v  37.3234 0.0000 9.2754
v  37.3234 0.0000 7.1929
v  37.3234 2.0174 11.4754
v  37.3234 2.0174 9.3929
v  35.3060 2.0174 9.3929
v  35.3060 2.0174 11.4754
v  37.3234 0.0000 11.4754
v  37.3234 0.0000 9.3929
v  37.3234 2.0174 13.6754
v  37.3234 2.0174 11.5929
v  35.3060 2.0174 11.5929
v  35.3060 2.0174 13.6754
v  37.3234 0.0000 13.6754
v  37.3234 0.0000 11.5929
v  37.3234 2.0174 15.8754
v  37.3234 2.0174 13.7929
v  35.3060 2.0174 13.7929
v  35.3060 2.0174 15.8754
v  37.3234 0.0000 15.8754
v  37.3234 0.0000 13.7929
v  37.3234 2.0174 18.0754
v  37.3234 2.0174 15.9929
v  35.3060 2.0174 15.9929
v  35.3060 2.0174 18.0754
v  37.3234 0.0000 18.0754
v  37.3234 0.0000 15.9929
v  35.2071 2.0174 9.2754
v  35.2071 2.0174 7.1929
v  33.1897 2.0174 7.1929
v  33.1897 2.0174 9.2754
v  33.1897 0.0000 7.1929
v  33.1897 0.0000 9.2754
v  35.2071 2.0174 13.6754
v  35.2071 2.0174 11.5929
v  33.1897 2.0174 11.5929
v  33.1897 2.0174 13.6754
v  33.1897 0.0000 11.5929
v  33.1897 0.0000 13.6754
v  35.2071 2.0174 15.8754
v  35.2071 2.0174 13.7929
v  33.1897 2.0174 13.7929
v  33.1897 2.0174 15.8754
v  33.1897 0.0000 13.7929
v  33.1897 0.0000 15.8754
v  35.2071 2.0174 18.0754
v  35.2071 2.0174 15.9929
v  33.1897 2.0174 15.9929
v  33.1897 2.0174 18.0754
v  33.1897 0.0000 15.9929
v  33.1897 0.0000 18.0754
v  35.2071 2.0174 20.2754
v  35.2071 2.0174 18.1929
v  33.1897 2.0174 18.1929
v  33.1897 2.0174 20.2754
v  33.1897 0.0000 18.1929
v  33.1897 0.0000 20.2754
v  35.2071 0.0000 20.2754
# 220 vertices

vn 0.0000 1.0000 -0.0000
vn -1.0000 0.0000 -0.0000
vn 1.0000 0.0000 -0.0000
vn 0.0000 0.0000 1.0000
vn 0.0000 0.0000 -1.0000
# 5 vertex normals

vt 0.0000 0.0000 0.0000
vt 1.0000 0.0000 0.0000
vt 1.0000 1.0000 0.0000
vt 0.0000 1.0000 0.0000
# 4 texture coords

o laberintoCompletoEgipto_Box274
g laberintoCompletoEgipto_Box274
usemtl laberintoCompletoEgipto_Material__25
s off
f 1/1/1 2/2/1 3/3/1 
f 3/3/1 4/4/1 1/1/1 
f 5/1/2 6/2/2 4/3/2 
f 4/3/2 3/4/2 5/1/2 
usemtl laberintoCompletoEgipto_Material__31
f 7/1/1 8/2/1 9/3/1 
f 9/3/1 10/4/1 7/1/1 
f 11/1/3 12/2/3 8/3/3 
f 8/3/3 7/4/3 11/1/3 
f 13/1/4 11/2/4 7/3/4 
f 7/3/4 10/4/4 13/1/4 
usemtl laberintoCompletoEgipto_Material__25
f 14/1/1 15/2/1 16/3/1 
f 16/3/1 17/4/1 14/1/1 
f 18/1/5 19/2/5 16/3/5 
f 16/3/5 15/4/5 18/1/5 
f 19/1/2 20/2/2 17/3/2 
f 17/3/2 16/4/2 19/1/2 
usemtl laberintoCompletoEgipto_Material__31
f 21/1/1 22/2/1 23/3/1 
f 23/3/1 24/4/1 21/1/1 
f 25/1/3 26/2/3 22/3/3 
f 22/3/3 21/4/3 25/1/3 
f 26/1/5 27/2/5 23/3/5 
f 23/3/5 22/4/5 26/1/5 
usemtl laberintoCompletoEgipto_Material__25
f 28/1/1 29/2/1 30/3/1 
f 30/3/1 31/4/1 28/1/1 
f 32/1/2 33/2/2 31/3/2 
f 31/3/2 30/4/2 32/1/2 
f 34/1/1 35/2/1 36/3/1 
f 36/3/1 37/4/1 34/1/1 
f 38/1/3 39/2/3 35/3/3 
f 35/3/3 34/4/3 38/1/3 
f 40/1/1 41/2/1 42/3/1 
f 42/3/1 43/4/1 40/1/1 
f 44/1/2 45/2/2 43/3/2 
f 43/3/2 42/4/2 44/1/2 
usemtl laberintoCompletoEgipto_Material__27
f 46/1/1 47/2/1 48/3/1 
f 48/3/1 49/4/1 46/1/1 
f 50/1/3 51/2/3 47/3/3 
f 47/3/3 46/4/3 50/1/3 
usemtl laberintoCompletoEgipto_Material__25
f 52/1/1 53/2/1 54/3/1 
f 54/3/1 55/4/1 52/1/1 
f 56/1/2 57/2/2 55/3/2 
f 55/3/2 54/4/2 56/1/2 
f 58/1/1 59/2/1 60/3/1 
f 60/3/1 61/4/1 58/1/1 
f 62/1/3 63/2/3 59/3/3 
f 59/3/3 58/4/3 62/1/3 
usemtl laberintoCompletoEgipto_Material__28
f 64/1/1 65/2/1 66/3/1 
f 66/3/1 67/4/1 64/1/1 
f 68/1/3 69/2/3 65/3/3 
f 65/3/3 64/4/3 68/1/3 
usemtl laberintoCompletoEgipto_Material__25
f 70/1/1 71/2/1 72/3/1 
f 72/3/1 73/4/1 70/1/1 
f 74/1/2 75/2/2 73/3/2 
f 73/3/2 72/4/2 74/1/2 
f 76/1/1 77/2/1 78/3/1 
f 78/3/1 79/4/1 76/1/1 
f 80/1/3 81/2/3 77/3/3 
f 77/3/3 76/4/3 80/1/3 
f 82/1/1 83/2/1 84/3/1 
f 84/3/1 85/4/1 82/1/1 
f 86/1/2 87/2/2 85/3/2 
f 85/3/2 84/4/2 86/1/2 
usemtl laberintoCompletoEgipto_Material__33
f 88/1/1 89/2/1 90/3/1 
f 90/3/1 91/4/1 88/1/1 
f 92/1/3 93/2/3 89/3/3 
f 89/3/3 88/4/3 92/1/3 
usemtl laberintoCompletoEgipto_Material__25
f 94/1/1 95/2/1 96/3/1 
f 96/3/1 97/4/1 94/1/1 
f 98/1/2 99/2/2 97/3/2 
f 97/3/2 96/4/2 98/1/2 
f 100/1/1 101/2/1 102/3/1 
f 102/3/1 103/4/1 100/1/1 
f 104/1/3 105/2/3 101/3/3 
f 101/3/3 100/4/3 104/1/3 
f 106/1/1 107/2/1 108/3/1 
f 108/3/1 109/4/1 106/1/1 
f 110/1/2 111/2/2 109/3/2 
f 109/3/2 108/4/2 110/1/2 
usemtl laberintoCompletoEgipto_Material__28
f 112/1/1 113/2/1 114/3/1 
f 114/3/1 115/4/1 112/1/1 
f 116/1/3 117/2/3 113/3/3 
f 113/3/3 112/4/3 116/1/3 
usemtl laberintoCompletoEgipto_Material__25
f 118/1/1 119/2/1 120/3/1 
f 120/3/1 121/4/1 118/1/1 
f 122/1/2 123/2/2 121/3/2 
f 121/3/2 120/4/2 122/1/2 
usemtl laberintoCompletoEgipto_Material__28
f 124/1/1 125/2/1 126/3/1 
f 126/3/1 127/4/1 124/1/1 
f 128/1/3 129/2/3 125/3/3 
f 125/3/3 124/4/3 128/1/3 
usemtl laberintoCompletoEgipto_Material__25
f 130/1/1 131/2/1 132/3/1 
f 132/3/1 133/4/1 130/1/1 
f 134/1/2 135/2/2 133/3/2 
f 133/3/2 132/4/2 134/1/2 
f 136/1/1 137/2/1 138/3/1 
f 138/3/1 139/4/1 136/1/1 
f 140/1/2 141/2/2 139/3/2 
f 139/3/2 138/4/2 140/1/2 
f 142/1/1 143/2/1 144/3/1 
f 144/3/1 145/4/1 142/1/1 
f 146/1/3 147/2/3 143/3/3 
f 143/3/3 142/4/3 146/1/3 
usemtl laberintoCompletoEgipto_Material__33
f 148/1/1 149/2/1 150/3/1 
f 150/3/1 151/4/1 148/1/1 
f 152/1/3 153/2/3 149/3/3 
f 149/3/3 148/4/3 152/1/3 
usemtl laberintoCompletoEgipto_Material__25
f 154/1/1 155/2/1 156/3/1 
f 156/3/1 157/4/1 154/1/1 
f 158/1/2 159/2/2 157/3/2 
f 157/3/2 156/4/2 158/1/2 
f 160/1/1 161/2/1 162/3/1 
f 162/3/1 163/4/1 160/1/1 
f 164/1/3 165/2/3 161/3/3 
f 161/3/3 160/4/3 164/1/3 
usemtl laberintoCompletoEgipto_Material__28
f 166/1/1 167/2/1 168/3/1 
f 168/3/1 169/4/1 166/1/1 
f 170/1/3 171/2/3 167/3/3 
f 167/3/3 166/4/3 170/1/3 
usemtl laberintoCompletoEgipto_Material__25
f 172/1/1 173/2/1 174/3/1 
f 174/3/1 175/4/1 172/1/1 
f 176/1/3 177/2/3 173/3/3 
f 173/3/3 172/4/3 176/1/3 
usemtl laberintoCompletoEgipto_Material__27
f 178/1/1 179/2/1 180/3/1 
f 180/3/1 181/4/1 178/1/1 
f 182/1/3 183/2/3 179/3/3 
f 179/3/3 178/4/3 182/1/3 
usemtl laberintoCompletoEgipto_Material__25
f 184/1/1 185/2/1 186/3/1 
f 186/3/1 187/4/1 184/1/1 
f 188/1/3 189/2/3 185/3/3 
f 185/3/3 184/4/3 188/1/3 
f 190/1/1 191/2/1 192/3/1 
f 192/3/1 193/4/1 190/1/1 
f 194/1/2 195/2/2 193/3/2 
f 193/3/2 192/4/2 194/1/2 
f 196/1/1 197/2/1 198/3/1 
f 198/3/1 199/4/1 196/1/1 
f 200/1/2 201/2/2 199/3/2 
f 199/3/2 198/4/2 200/1/2 
f 202/1/1 203/2/1 204/3/1 
f 204/3/1 205/4/1 202/1/1 
f 206/1/2 207/2/2 205/3/2 
f 205/3/2 204/4/2 206/1/2 
f 208/1/1 209/2/1 210/3/1 
f 210/3/1 211/4/1 208/1/1 
f 212/1/2 213/2/2 211/3/2 
f 211/3/2 210/4/2 212/1/2 
f 214/1/1 215/2/1 216/3/1 
f 216/3/1 217/4/1 214/1/1 
f 218/1/2 219/2/2 217/3/2 
f 217/3/2 216/4/2 218/1/2 
f 219/1/4 220/2/4 214/3/4 
f 214/3/4 217/4/4 219/1/4 
# 152 faces

