# 3ds Max Wavefront OBJ Exporter v0.97b - (c)2007 guruware
# File Created: 23.05.2020 17:10:05

mtllib LE.mtl

#
# object laberintoCompletoEgipto_Box221
#

v  -30.9444 2.0174 37.8708
v  -30.9444 2.0174 35.7884
v  -32.9618 2.0174 35.7884
v  -32.9618 2.0174 37.8708
v  -32.9618 0.0000 35.7884
v  -32.9618 0.0000 37.8708
v  -30.9444 0.0000 37.8708
v  -30.9444 2.0174 35.6708
v  -30.9444 2.0174 33.5884
v  -32.9618 2.0174 33.5884
v  -32.9618 2.0174 35.6708
v  -30.9444 0.0000 33.5884
v  -32.9618 0.0000 33.5884
v  -32.9618 0.0000 35.6708
v  -28.7448 2.0174 37.8708
v  -28.7448 2.0174 35.7884
v  -30.7621 2.0174 35.7884
v  -30.7621 2.0174 37.8708
v  -30.7621 0.0000 37.8708
v  -28.7448 0.0000 37.8708
v  -28.7448 2.0174 35.6708
v  -28.7448 2.0174 33.5884
v  -30.7621 2.0174 33.5884
v  -30.7621 2.0174 35.6708
v  -28.7448 0.0000 33.5884
v  -30.7621 0.0000 33.5884
v  -26.5627 2.0174 37.8708
v  -26.5627 2.0174 35.7884
v  -28.5801 2.0174 35.7884
v  -28.5801 2.0174 37.8708
v  -28.5801 0.0000 37.8708
v  -26.5627 0.0000 37.8708
v  -24.3630 2.0174 37.8708
v  -24.3630 2.0174 35.7884
v  -26.3804 2.0174 35.7884
v  -26.3804 2.0174 37.8708
v  -24.3630 0.0000 37.8708
v  -24.3630 0.0000 35.7884
v  -26.3804 0.0000 37.8708
v  -26.5627 2.0174 35.6708
v  -26.5627 2.0174 33.5884
v  -28.5801 2.0174 33.5884
v  -28.5801 2.0174 35.6708
v  -26.5627 0.0000 33.5884
v  -28.5801 0.0000 33.5884
v  -24.3630 2.0174 35.6708
v  -24.3630 2.0174 33.5884
v  -26.3804 2.0174 33.5884
v  -26.3804 2.0174 35.6708
v  -24.3630 0.0000 35.6708
v  -24.3630 0.0000 33.5884
v  -26.3804 0.0000 33.5884
# 52 vertices

vn 0.0000 1.0000 -0.0000
vn -1.0000 0.0000 -0.0000
vn 0.0000 0.0000 1.0000
vn 0.0000 0.0000 -1.0000
vn 1.0000 0.0000 -0.0000
# 5 vertex normals

vt 0.0000 0.0000 0.0000
vt 1.0000 0.0000 0.0000
vt 1.0000 1.0000 0.0000
vt 0.0000 1.0000 0.0000
# 4 texture coords

o laberintoCompletoEgipto_Box221
g laberintoCompletoEgipto_Box221
usemtl laberintoCompletoEgipto_Material__31
s off
f 1/1/1 2/2/1 3/3/1 
f 3/3/1 4/4/1 1/1/1 
f 5/1/2 6/2/2 4/3/2 
f 4/3/2 3/4/2 5/1/2 
f 6/1/3 7/2/3 1/3/3 
f 1/3/3 4/4/3 6/1/3 
usemtl laberintoCompletoEgipto_Material__25
f 8/1/1 9/2/1 10/3/1 
f 10/3/1 11/4/1 8/1/1 
f 12/1/4 13/2/4 10/3/4 
f 10/3/4 9/4/4 12/1/4 
f 13/1/2 14/2/2 11/3/2 
f 11/3/2 10/4/2 13/1/2 
f 15/1/1 16/2/1 17/3/1 
f 17/3/1 18/4/1 15/1/1 
f 19/1/3 20/2/3 15/3/3 
f 15/3/3 18/4/3 19/1/3 
f 21/1/1 22/2/1 23/3/1 
f 23/3/1 24/4/1 21/1/1 
f 25/1/4 26/2/4 23/3/4 
f 23/3/4 22/4/4 25/1/4 
usemtl laberintoCompletoEgipto_Material__33
f 27/1/1 28/2/1 29/3/1 
f 29/3/1 30/4/1 27/1/1 
f 31/1/3 32/2/3 27/3/3 
f 27/3/3 30/4/3 31/1/3 
usemtl laberintoCompletoEgipto_Material__25
f 33/1/1 34/2/1 35/3/1 
f 35/3/1 36/4/1 33/1/1 
f 37/1/5 38/2/5 34/3/5 
f 34/3/5 33/4/5 37/1/5 
f 39/1/3 37/2/3 33/3/3 
f 33/3/3 36/4/3 39/1/3 
f 40/1/1 41/2/1 42/3/1 
f 42/3/1 43/4/1 40/1/1 
f 44/1/4 45/2/4 42/3/4 
f 42/3/4 41/4/4 44/1/4 
f 46/1/1 47/2/1 48/3/1 
f 48/3/1 49/4/1 46/1/1 
f 50/1/5 51/2/5 47/3/5 
f 47/3/5 46/4/5 50/1/5 
f 51/1/4 52/2/4 48/3/4 
f 48/3/4 47/4/4 51/1/4 
# 40 faces

