# 3ds Max Wavefront OBJ Exporter v0.97b - (c)2007 guruware
# File Created: 27.05.2020 10:25:13

mtllib LE.mtl

#
# object Box081
#

v  -11.3693 0.0000 44.9896
v  -11.3693 0.0000 42.7896
v  -2.8693 0.0000 42.7896
v  -2.8693 0.0000 44.9896
v  -11.3693 2.0000 44.9896
v  -2.8693 2.0000 44.9896
v  -2.8693 2.0000 42.7896
v  -11.3693 2.0000 42.7896
v  -11.3693 0.0000 47.1895
v  -11.3693 0.0000 44.9895
v  -2.8693 0.0000 44.9895
v  -2.8693 0.0000 47.1895
v  -11.3693 2.0000 47.1895
v  -2.8693 2.0000 47.1895
v  -2.8693 2.0000 44.9895
v  -11.3693 2.0000 44.9895
v  -19.8693 0.0000 44.9896
v  -19.8693 0.0000 42.7896
v  -19.8693 2.0000 44.9896
v  -19.8693 2.0000 42.7896
v  -19.8693 0.0000 47.1895
v  -19.8693 0.0000 44.9895
v  -19.8693 2.0000 47.1895
v  -19.8693 2.0000 44.9895
v  -28.3693 0.0000 44.9896
v  -28.3693 0.0000 42.7896
v  -28.3693 2.0000 44.9896
v  -28.3693 2.0000 42.7896
v  -28.3693 0.0000 47.1895
v  -28.3693 0.0000 44.9895
v  -28.3693 2.0000 47.1895
v  -28.3693 2.0000 44.9895
v  -36.8693 0.0000 44.9896
v  -36.8693 0.0000 42.7896
v  -36.8693 2.0000 44.9896
v  -36.8693 2.0000 42.7896
v  -36.8693 0.0000 47.1895
v  -36.8693 0.0000 44.9895
v  -36.8693 2.0000 47.1895
v  -36.8693 2.0000 44.9895
v  -45.3697 0.0000 44.9896
v  -45.3697 0.0000 42.7896
v  -36.8697 0.0000 42.7896
v  -36.8697 0.0000 44.9896
v  -45.3697 2.0000 44.9896
v  -36.8697 2.0000 44.9896
v  -36.8697 2.0000 42.7896
v  -45.3697 2.0000 42.7896
v  -45.3697 0.0000 47.1895
v  -45.3697 0.0000 44.9895
v  -36.8697 0.0000 44.9895
v  -36.8697 0.0000 47.1895
v  -45.3697 2.0000 47.1895
v  -36.8697 2.0000 47.1895
v  -36.8697 2.0000 44.9895
v  -45.3697 2.0000 44.9895
# 56 vertices

vn 0.0000 -1.0000 -0.0000
vn 0.0000 1.0000 -0.0000
vn 0.0000 0.0000 1.0000
vn 1.0000 0.0000 -0.0000
vn 0.0000 0.0000 -1.0000
vn -1.0000 0.0000 -0.0000
# 6 vertex normals

vt 1.0000 0.0000 0.0000
vt 1.0000 1.0000 0.0000
vt 0.0000 1.0000 0.0000
vt 0.0000 0.0000 0.0000
# 4 texture coords

o Box081
g Box081
usemtl Material__2200
s 2
f 1/1/1 2/2/1 3/3/1 
f 3/3/1 4/4/1 1/1/1 
s 4
f 5/4/2 6/1/2 7/2/2 
f 7/2/2 8/3/2 5/4/2 
s 8
f 1/4/3 4/1/3 6/2/3 
f 6/2/3 5/3/3 1/4/3 
s 16
f 4/4/4 3/1/4 7/2/4 
f 7/2/4 6/3/4 4/4/4 
s 32
f 3/4/5 2/1/5 8/2/5 
f 8/2/5 7/3/5 3/4/5 
s 64
f 2/4/6 1/1/6 5/2/6 
f 5/2/6 8/3/6 2/4/6 
usemtl Material__2201
s 2
f 9/1/1 10/2/1 11/3/1 
f 11/3/1 12/4/1 9/1/1 
s 4
f 13/4/2 14/1/2 15/2/2 
f 15/2/2 16/3/2 13/4/2 
s 8
f 9/4/3 12/1/3 14/2/3 
f 14/2/3 13/3/3 9/4/3 
s 16
f 12/4/4 11/1/4 15/2/4 
f 15/2/4 14/3/4 12/4/4 
s 32
f 11/4/5 10/1/5 16/2/5 
f 16/2/5 15/3/5 11/4/5 
s 64
f 10/4/6 9/1/6 13/2/6 
f 13/2/6 16/3/6 10/4/6 
usemtl Material__2200
s 2
f 17/1/1 18/2/1 2/3/1 
f 2/3/1 1/4/1 17/1/1 
s 4
f 19/4/2 5/1/2 8/2/2 
f 8/2/2 20/3/2 19/4/2 
s 8
f 17/4/3 1/1/3 5/2/3 
f 5/2/3 19/3/3 17/4/3 
s 16
f 1/4/4 2/1/4 8/2/4 
f 8/2/4 5/3/4 1/4/4 
s 32
f 2/4/5 18/1/5 20/2/5 
f 20/2/5 8/3/5 2/4/5 
s 64
f 18/4/6 17/1/6 19/2/6 
f 19/2/6 20/3/6 18/4/6 
usemtl Material__2201
s 2
f 21/1/1 22/2/1 10/3/1 
f 10/3/1 9/4/1 21/1/1 
s 4
f 23/4/2 13/1/2 16/2/2 
f 16/2/2 24/3/2 23/4/2 
s 8
f 21/4/3 9/1/3 13/2/3 
f 13/2/3 23/3/3 21/4/3 
s 16
f 9/4/4 10/1/4 16/2/4 
f 16/2/4 13/3/4 9/4/4 
s 32
f 10/4/5 22/1/5 24/2/5 
f 24/2/5 16/3/5 10/4/5 
s 64
f 22/4/6 21/1/6 23/2/6 
f 23/2/6 24/3/6 22/4/6 
usemtl Material__2200
s 2
f 25/1/1 26/2/1 18/3/1 
f 18/3/1 17/4/1 25/1/1 
s 4
f 27/4/2 19/1/2 20/2/2 
f 20/2/2 28/3/2 27/4/2 
s 8
f 25/4/3 17/1/3 19/2/3 
f 19/2/3 27/3/3 25/4/3 
s 16
f 17/4/4 18/1/4 20/2/4 
f 20/2/4 19/3/4 17/4/4 
s 32
f 18/4/5 26/1/5 28/2/5 
f 28/2/5 20/3/5 18/4/5 
s 64
f 26/4/6 25/1/6 27/2/6 
f 27/2/6 28/3/6 26/4/6 
usemtl Material__2201
s 2
f 29/1/1 30/2/1 22/3/1 
f 22/3/1 21/4/1 29/1/1 
s 4
f 31/4/2 23/1/2 24/2/2 
f 24/2/2 32/3/2 31/4/2 
s 8
f 29/4/3 21/1/3 23/2/3 
f 23/2/3 31/3/3 29/4/3 
s 16
f 21/4/4 22/1/4 24/2/4 
f 24/2/4 23/3/4 21/4/4 
s 32
f 22/4/5 30/1/5 32/2/5 
f 32/2/5 24/3/5 22/4/5 
s 64
f 30/4/6 29/1/6 31/2/6 
f 31/2/6 32/3/6 30/4/6 
usemtl Material__2200
s 2
f 33/1/1 34/2/1 26/3/1 
f 26/3/1 25/4/1 33/1/1 
s 4
f 35/4/2 27/1/2 28/2/2 
f 28/2/2 36/3/2 35/4/2 
s 8
f 33/4/3 25/1/3 27/2/3 
f 27/2/3 35/3/3 33/4/3 
s 16
f 25/4/4 26/1/4 28/2/4 
f 28/2/4 27/3/4 25/4/4 
s 32
f 26/4/5 34/1/5 36/2/5 
f 36/2/5 28/3/5 26/4/5 
s 64
f 34/4/6 33/1/6 35/2/6 
f 35/2/6 36/3/6 34/4/6 
usemtl Material__2201
s 2
f 37/1/1 38/2/1 30/3/1 
f 30/3/1 29/4/1 37/1/1 
s 4
f 39/4/2 31/1/2 32/2/2 
f 32/2/2 40/3/2 39/4/2 
s 8
f 37/4/3 29/1/3 31/2/3 
f 31/2/3 39/3/3 37/4/3 
s 16
f 29/4/4 30/1/4 32/2/4 
f 32/2/4 31/3/4 29/4/4 
s 32
f 30/4/5 38/1/5 40/2/5 
f 40/2/5 32/3/5 30/4/5 
s 64
f 38/4/6 37/1/6 39/2/6 
f 39/2/6 40/3/6 38/4/6 
usemtl Material__2200
s 2
f 41/1/1 42/2/1 43/3/1 
f 43/3/1 44/4/1 41/1/1 
s 4
f 45/4/2 46/1/2 47/2/2 
f 47/2/2 48/3/2 45/4/2 
s 8
f 41/4/3 44/1/3 46/2/3 
f 46/2/3 45/3/3 41/4/3 
s 16
f 44/4/4 43/1/4 47/2/4 
f 47/2/4 46/3/4 44/4/4 
s 32
f 43/4/5 42/1/5 48/2/5 
f 48/2/5 47/3/5 43/4/5 
s 64
f 42/4/6 41/1/6 45/2/6 
f 45/2/6 48/3/6 42/4/6 
usemtl Material__2201
s 2
f 49/1/1 50/2/1 51/3/1 
f 51/3/1 52/4/1 49/1/1 
s 4
f 53/4/2 54/1/2 55/2/2 
f 55/2/2 56/3/2 53/4/2 
s 8
f 49/4/3 52/1/3 54/2/3 
f 54/2/3 53/3/3 49/4/3 
s 16
f 52/4/4 51/1/4 55/2/4 
f 55/2/4 54/3/4 52/4/4 
s 32
f 51/4/5 50/1/5 56/2/5 
f 56/2/5 55/3/5 51/4/5 
s 64
f 50/4/6 49/1/6 53/2/6 
f 53/2/6 56/3/6 50/4/6 
# 120 faces

