# 3ds Max Wavefront OBJ Exporter v0.97b - (c)2007 guruware
# File Created: 27.05.2020 10:25:26

mtllib LE.mtl

#
# object Box082
#

v  -47.5620 0.0000 38.6887
v  -45.3620 0.0000 38.6887
v  -45.3620 0.0000 47.1887
v  -47.5620 0.0000 47.1887
v  -47.5620 2.0000 38.6887
v  -47.5620 2.0000 47.1887
v  -45.3620 2.0000 47.1887
v  -45.3620 2.0000 38.6887
v  -49.7620 0.0000 38.6887
v  -49.7620 0.0000 47.1887
v  -49.7620 2.0000 38.6887
v  -49.7620 2.0000 47.1887
v  -47.5620 0.0000 30.1887
v  -45.3620 0.0000 30.1887
v  -47.5620 2.0000 30.1887
v  -45.3620 2.0000 30.1887
v  -49.7620 0.0000 30.1887
v  -49.7620 2.0000 30.1887
v  -47.5620 0.0000 21.6887
v  -45.3620 0.0000 21.6887
v  -47.5620 2.0000 21.6887
v  -45.3620 2.0000 21.6887
v  -49.7620 0.0000 21.6887
v  -49.7620 2.0000 21.6887
v  -47.5620 0.0000 13.1887
v  -45.3620 0.0000 13.1887
v  -47.5620 2.0000 13.1887
v  -45.3620 2.0000 13.1887
v  -49.7620 0.0000 13.1887
v  -49.7620 2.0000 13.1887
v  -47.5620 0.0000 4.6884
v  -45.3620 0.0000 4.6884
v  -45.3620 0.0000 13.1884
v  -47.5620 0.0000 13.1884
v  -47.5620 2.0000 4.6884
v  -47.5620 2.0000 13.1884
v  -45.3620 2.0000 13.1884
v  -45.3620 2.0000 4.6884
v  -49.7620 0.0000 4.6884
v  -49.7620 0.0000 13.1884
v  -49.7620 2.0000 4.6884
v  -49.7620 2.0000 13.1884
# 42 vertices

vn 0.0000 -1.0000 -0.0000
vn 0.0000 1.0000 -0.0000
vn -1.0000 0.0000 -0.0000
vn -0.0000 0.0000 1.0000
vn 1.0000 0.0000 0.0000
vn 0.0000 0.0000 -1.0000
# 6 vertex normals

vt 1.0000 0.0000 0.0000
vt 1.0000 1.0000 0.0000
vt 0.0000 1.0000 0.0000
vt 0.0000 0.0000 0.0000
# 4 texture coords

o Box082
g Box082
usemtl Material__2200
s 2
f 1/1/1 2/2/1 3/3/1 
f 3/3/1 4/4/1 1/1/1 
s 4
f 5/4/2 6/1/2 7/2/2 
f 7/2/2 8/3/2 5/4/2 
s 8
f 1/4/3 4/1/3 6/2/3 
f 6/2/3 5/3/3 1/4/3 
s 16
f 4/4/4 3/1/4 7/2/4 
f 7/2/4 6/3/4 4/4/4 
s 32
f 3/4/5 2/1/5 8/2/5 
f 8/2/5 7/3/5 3/4/5 
s 64
f 2/4/6 1/1/6 5/2/6 
f 5/2/6 8/3/6 2/4/6 
usemtl Material__2201
s 2
f 9/1/1 1/2/1 4/3/1 
f 4/3/1 10/4/1 9/1/1 
s 4
f 11/4/2 12/1/2 6/2/2 
f 6/2/2 5/3/2 11/4/2 
s 8
f 9/4/3 10/1/3 12/2/3 
f 12/2/3 11/3/3 9/4/3 
s 16
f 10/4/4 4/1/4 6/2/4 
f 6/2/4 12/3/4 10/4/4 
s 32
f 4/4/5 1/1/5 5/2/5 
f 5/2/5 6/3/5 4/4/5 
s 64
f 1/4/6 9/1/6 11/2/6 
f 11/2/6 5/3/6 1/4/6 
usemtl Material__2200
s 2
f 13/1/1 14/2/1 2/3/1 
f 2/3/1 1/4/1 13/1/1 
s 4
f 15/4/2 5/1/2 8/2/2 
f 8/2/2 16/3/2 15/4/2 
s 8
f 13/4/3 1/1/3 5/2/3 
f 5/2/3 15/3/3 13/4/3 
s 16
f 1/4/4 2/1/4 8/2/4 
f 8/2/4 5/3/4 1/4/4 
s 32
f 2/4/5 14/1/5 16/2/5 
f 16/2/5 8/3/5 2/4/5 
s 64
f 14/4/6 13/1/6 15/2/6 
f 15/2/6 16/3/6 14/4/6 
usemtl Material__2201
s 2
f 17/1/1 13/2/1 1/3/1 
f 1/3/1 9/4/1 17/1/1 
s 4
f 18/4/2 11/1/2 5/2/2 
f 5/2/2 15/3/2 18/4/2 
s 8
f 17/4/3 9/1/3 11/2/3 
f 11/2/3 18/3/3 17/4/3 
s 16
f 9/4/4 1/1/4 5/2/4 
f 5/2/4 11/3/4 9/4/4 
s 32
f 1/4/5 13/1/5 15/2/5 
f 15/2/5 5/3/5 1/4/5 
s 64
f 13/4/6 17/1/6 18/2/6 
f 18/2/6 15/3/6 13/4/6 
usemtl Material__2200
s 2
f 19/1/1 20/2/1 14/3/1 
f 14/3/1 13/4/1 19/1/1 
s 4
f 21/4/2 15/1/2 16/2/2 
f 16/2/2 22/3/2 21/4/2 
s 8
f 19/4/3 13/1/3 15/2/3 
f 15/2/3 21/3/3 19/4/3 
s 16
f 13/4/4 14/1/4 16/2/4 
f 16/2/4 15/3/4 13/4/4 
s 32
f 14/4/5 20/1/5 22/2/5 
f 22/2/5 16/3/5 14/4/5 
s 64
f 20/4/6 19/1/6 21/2/6 
f 21/2/6 22/3/6 20/4/6 
usemtl Material__2201
s 2
f 23/1/1 19/2/1 13/3/1 
f 13/3/1 17/4/1 23/1/1 
s 4
f 24/4/2 18/1/2 15/2/2 
f 15/2/2 21/3/2 24/4/2 
s 8
f 23/4/3 17/1/3 18/2/3 
f 18/2/3 24/3/3 23/4/3 
s 16
f 17/4/4 13/1/4 15/2/4 
f 15/2/4 18/3/4 17/4/4 
s 32
f 13/4/5 19/1/5 21/2/5 
f 21/2/5 15/3/5 13/4/5 
s 64
f 19/4/6 23/1/6 24/2/6 
f 24/2/6 21/3/6 19/4/6 
usemtl Material__2200
s 2
f 25/1/1 26/2/1 20/3/1 
f 20/3/1 19/4/1 25/1/1 
s 4
f 27/4/2 21/1/2 22/2/2 
f 22/2/2 28/3/2 27/4/2 
s 8
f 25/4/3 19/1/3 21/2/3 
f 21/2/3 27/3/3 25/4/3 
s 16
f 19/4/4 20/1/4 22/2/4 
f 22/2/4 21/3/4 19/4/4 
s 32
f 20/4/5 26/1/5 28/2/5 
f 28/2/5 22/3/5 20/4/5 
s 64
f 26/4/6 25/1/6 27/2/6 
f 27/2/6 28/3/6 26/4/6 
usemtl Material__2201
s 2
f 29/1/1 25/2/1 19/3/1 
f 19/3/1 23/4/1 29/1/1 
s 4
f 30/4/2 24/1/2 21/2/2 
f 21/2/2 27/3/2 30/4/2 
s 8
f 29/4/3 23/1/3 24/2/3 
f 24/2/3 30/3/3 29/4/3 
s 16
f 23/4/4 19/1/4 21/2/4 
f 21/2/4 24/3/4 23/4/4 
s 32
f 19/4/5 25/1/5 27/2/5 
f 27/2/5 21/3/5 19/4/5 
s 64
f 25/4/6 29/1/6 30/2/6 
f 30/2/6 27/3/6 25/4/6 
usemtl Material__2200
s 2
f 31/1/1 32/2/1 33/3/1 
f 33/3/1 34/4/1 31/1/1 
s 4
f 35/4/2 36/1/2 37/2/2 
f 37/2/2 38/3/2 35/4/2 
s 8
f 31/4/3 34/1/3 36/2/3 
f 36/2/3 35/3/3 31/4/3 
s 16
f 34/4/4 33/1/4 37/2/4 
f 37/2/4 36/3/4 34/4/4 
s 32
f 33/4/5 32/1/5 38/2/5 
f 38/2/5 37/3/5 33/4/5 
s 64
f 32/4/6 31/1/6 35/2/6 
f 35/2/6 38/3/6 32/4/6 
usemtl Material__2201
s 2
f 39/1/1 31/2/1 34/3/1 
f 34/3/1 40/4/1 39/1/1 
s 4
f 41/4/2 42/1/2 36/2/2 
f 36/2/2 35/3/2 41/4/2 
s 8
f 39/4/3 40/1/3 42/2/3 
f 42/2/3 41/3/3 39/4/3 
s 16
f 40/4/4 34/1/4 36/2/4 
f 36/2/4 42/3/4 40/4/4 
s 32
f 34/4/5 31/1/5 35/2/5 
f 35/2/5 36/3/5 34/4/5 
s 64
f 31/4/6 39/1/6 41/2/6 
f 41/2/6 35/3/6 31/4/6 
# 120 faces

