# 3ds Max Wavefront OBJ Exporter v0.97b - (c)2007 guruware
# File Created: 23.05.2020 17:14:18

mtllib LE.mtl

#
# object laberintoCompletoEgipto_Box088
#

v  -41.9486 2.0174 -3.8833
v  -41.9486 2.0174 -5.9657
v  -43.9660 2.0174 -5.9657
v  -43.9660 2.0174 -3.8833
v  -41.9486 0.0000 -3.8833
v  -41.9486 0.0000 -5.9657
v  -43.9660 0.0000 -5.9657
v  -43.9660 0.0000 -3.8833
v  -41.9486 2.0174 -6.0833
v  -41.9486 2.0174 -8.1657
v  -43.9660 2.0174 -8.1657
v  -43.9660 2.0174 -6.0833
v  -41.9486 0.0000 -6.0833
v  -41.9486 0.0000 -8.1657
v  -43.9660 0.0000 -8.1657
v  -43.9660 0.0000 -6.0833
v  -41.9486 2.0174 -8.2833
v  -41.9486 2.0174 -10.3657
v  -43.9660 2.0174 -10.3657
v  -43.9660 2.0174 -8.2833
v  -41.9486 0.0000 -8.2833
v  -41.9486 0.0000 -10.3657
v  -43.9660 0.0000 -10.3657
v  -43.9660 0.0000 -8.2833
v  -41.9486 2.0174 -10.4833
v  -41.9486 2.0174 -12.5657
v  -43.9660 2.0174 -12.5657
v  -43.9660 2.0174 -10.4833
v  -41.9486 0.0000 -10.4833
v  -41.9486 0.0000 -12.5657
v  -43.9660 0.0000 -12.5657
v  -43.9660 0.0000 -10.4833
v  -41.9486 2.0174 -12.6833
v  -41.9486 2.0174 -14.7657
v  -43.9660 2.0174 -14.7657
v  -43.9660 2.0174 -12.6833
v  -41.9486 0.0000 -12.6833
v  -41.9486 0.0000 -14.7657
v  -43.9660 0.0000 -14.7657
v  -43.9660 0.0000 -12.6833
v  -41.9486 2.0174 -14.8833
v  -41.9486 2.0174 -16.9657
v  -43.9660 2.0174 -16.9657
v  -43.9660 2.0174 -14.8833
v  -41.9486 0.0000 -14.8833
v  -41.9486 0.0000 -16.9657
v  -43.9660 0.0000 -16.9657
v  -43.9660 0.0000 -14.8833
v  -41.9486 2.0174 -17.0833
v  -41.9486 2.0174 -19.1657
v  -43.9660 2.0174 -19.1657
v  -43.9660 2.0174 -17.0833
v  -41.9486 0.0000 -17.0833
v  -41.9486 0.0000 -19.1657
v  -43.9660 0.0000 -19.1657
v  -43.9660 0.0000 -17.0833
v  -41.9486 2.0174 -19.2833
v  -41.9486 2.0174 -21.3657
v  -43.9660 2.0174 -21.3657
v  -43.9660 2.0174 -19.2833
v  -41.9486 0.0000 -19.2833
v  -41.9486 0.0000 -21.3657
v  -43.9660 0.0000 -21.3657
v  -43.9660 0.0000 -19.2833
v  -41.9486 2.0174 -21.4833
v  -41.9486 2.0174 -23.5657
v  -43.9660 2.0174 -23.5657
v  -43.9660 2.0174 -21.4833
v  -41.9486 0.0000 -21.4833
v  -41.9486 0.0000 -23.5657
v  -43.9660 0.0000 -23.5657
v  -43.9660 0.0000 -21.4833
v  -41.9486 2.0174 -23.6833
v  -41.9486 2.0174 -25.7657
v  -43.9660 2.0174 -25.7657
v  -43.9660 2.0174 -23.6833
v  -41.9486 0.0000 -23.6833
v  -41.9486 0.0000 -25.7657
v  -43.9660 0.0000 -25.7657
v  -43.9660 0.0000 -23.6833
v  -41.9486 2.0174 -25.8833
v  -41.9486 2.0174 -27.9657
v  -43.9660 2.0174 -27.9657
v  -43.9660 2.0174 -25.8833
v  -41.9486 0.0000 -25.8833
v  -41.9486 0.0000 -27.9657
v  -43.9660 0.0000 -27.9657
v  -43.9660 0.0000 -25.8833
v  -41.9486 2.0174 -28.0833
v  -41.9486 2.0174 -30.1657
v  -43.9660 2.0174 -30.1657
v  -43.9660 2.0174 -28.0833
v  -41.9486 0.0000 -28.0833
v  -41.9486 0.0000 -30.1657
v  -43.9660 0.0000 -30.1657
v  -43.9660 0.0000 -28.0833
v  -41.9486 2.0174 -30.2833
v  -41.9486 2.0174 -32.3657
v  -43.9660 2.0174 -32.3657
v  -43.9660 2.0174 -30.2833
v  -41.9486 0.0000 -30.2833
v  -41.9486 0.0000 -32.3657
v  -43.9660 0.0000 -32.3657
v  -43.9660 0.0000 -30.2833
v  -41.9486 2.0174 -32.4833
v  -41.9486 2.0174 -34.5657
v  -43.9660 2.0174 -34.5657
v  -43.9660 2.0174 -32.4833
v  -41.9486 0.0000 -32.4833
v  -41.9486 0.0000 -34.5657
v  -43.9660 0.0000 -34.5657
v  -43.9660 0.0000 -32.4833
v  -41.9486 2.0174 -34.6833
v  -41.9486 2.0174 -36.7657
v  -43.9660 2.0174 -36.7657
v  -43.9660 2.0174 -34.6833
v  -41.9486 0.0000 -34.6833
v  -41.9486 0.0000 -36.7657
v  -43.9660 0.0000 -36.7657
v  -43.9660 0.0000 -34.6833
v  -41.9486 2.0174 -36.8748
v  -41.9486 2.0174 -38.9572
v  -43.9660 2.0174 -38.9572
v  -43.9660 2.0174 -36.8748
v  -41.9486 0.0000 -36.8748
v  -41.9486 0.0000 -38.9572
v  -43.9660 0.0000 -38.9572
v  -43.9660 0.0000 -36.8748
v  -41.9486 2.0174 -39.0888
v  -41.9486 2.0174 -41.1712
v  -43.9660 2.0174 -41.1712
v  -43.9660 2.0174 -39.0888
v  -41.9486 0.0000 -39.0888
v  -41.9486 0.0000 -41.1712
v  -43.9660 0.0000 -41.1712
v  -43.9660 0.0000 -39.0888
v  -43.9998 2.0174 -41.3223
v  -41.9174 2.0174 -41.3223
v  -41.9174 2.0174 -43.3397
v  -43.9998 2.0174 -43.3397
v  -41.9174 0.0000 -43.3397
v  -43.9998 0.0000 -43.3397
v  -43.9998 0.0000 -41.3223
# 143 vertices

vn 0.0000 1.0000 -0.0000
vn 1.0000 0.0000 -0.0000
vn -1.0000 0.0000 -0.0000
vn 0.0000 0.0000 1.0000
vn 0.0000 0.0000 -1.0000
# 5 vertex normals

vt 0.0000 0.0000 0.0000
vt 1.0000 0.0000 0.0000
vt 1.0000 1.0000 0.0000
vt 0.0000 1.0000 0.0000
# 4 texture coords

o laberintoCompletoEgipto_Box088
g laberintoCompletoEgipto_Box088
usemtl laberintoCompletoEgipto_Material__25
s off
f 1/1/1 2/2/1 3/3/1 
f 3/3/1 4/4/1 1/1/1 
f 5/1/2 6/2/2 2/3/2 
f 2/3/2 1/4/2 5/1/2 
f 7/1/3 8/2/3 4/3/3 
f 4/3/3 3/4/3 7/1/3 
f 8/1/4 5/2/4 1/3/4 
f 1/3/4 4/4/4 8/1/4 
f 9/1/1 10/2/1 11/3/1 
f 11/3/1 12/4/1 9/1/1 
f 13/1/2 14/2/2 10/3/2 
f 10/3/2 9/4/2 13/1/2 
f 15/1/3 16/2/3 12/3/3 
f 12/3/3 11/4/3 15/1/3 
usemtl laberintoCompletoEgipto_Material__28
f 17/1/1 18/2/1 19/3/1 
f 19/3/1 20/4/1 17/1/1 
f 21/1/2 22/2/2 18/3/2 
f 18/3/2 17/4/2 21/1/2 
f 23/1/3 24/2/3 20/3/3 
f 20/3/3 19/4/3 23/1/3 
usemtl laberintoCompletoEgipto_Material__25
f 25/1/1 26/2/1 27/3/1 
f 27/3/1 28/4/1 25/1/1 
f 29/1/2 30/2/2 26/3/2 
f 26/3/2 25/4/2 29/1/2 
f 31/1/3 32/2/3 28/3/3 
f 28/3/3 27/4/3 31/1/3 
f 33/1/1 34/2/1 35/3/1 
f 35/3/1 36/4/1 33/1/1 
f 37/1/2 38/2/2 34/3/2 
f 34/3/2 33/4/2 37/1/2 
f 39/1/3 40/2/3 36/3/3 
f 36/3/3 35/4/3 39/1/3 
usemtl laberintoCompletoEgipto_Material__27
f 41/1/1 42/2/1 43/3/1 
f 43/3/1 44/4/1 41/1/1 
f 45/1/2 46/2/2 42/3/2 
f 42/3/2 41/4/2 45/1/2 
f 47/1/3 48/2/3 44/3/3 
f 44/3/3 43/4/3 47/1/3 
usemtl laberintoCompletoEgipto_Material__25
f 49/1/1 50/2/1 51/3/1 
f 51/3/1 52/4/1 49/1/1 
f 53/1/2 54/2/2 50/3/2 
f 50/3/2 49/4/2 53/1/2 
f 55/1/3 56/2/3 52/3/3 
f 52/3/3 51/4/3 55/1/3 
f 57/1/1 58/2/1 59/3/1 
f 59/3/1 60/4/1 57/1/1 
f 61/1/2 62/2/2 58/3/2 
f 58/3/2 57/4/2 61/1/2 
f 63/1/3 64/2/3 60/3/3 
f 60/3/3 59/4/3 63/1/3 
usemtl laberintoCompletoEgipto_Material__31
f 65/1/1 66/2/1 67/3/1 
f 67/3/1 68/4/1 65/1/1 
f 69/1/2 70/2/2 66/3/2 
f 66/3/2 65/4/2 69/1/2 
f 71/1/3 72/2/3 68/3/3 
f 68/3/3 67/4/3 71/1/3 
usemtl laberintoCompletoEgipto_Material__25
f 73/1/1 74/2/1 75/3/1 
f 75/3/1 76/4/1 73/1/1 
f 77/1/2 78/2/2 74/3/2 
f 74/3/2 73/4/2 77/1/2 
f 79/1/3 80/2/3 76/3/3 
f 76/3/3 75/4/3 79/1/3 
f 81/1/1 82/2/1 83/3/1 
f 83/3/1 84/4/1 81/1/1 
f 85/1/2 86/2/2 82/3/2 
f 82/3/2 81/4/2 85/1/2 
f 87/1/3 88/2/3 84/3/3 
f 84/3/3 83/4/3 87/1/3 
usemtl laberintoCompletoEgipto_Material__33
f 89/1/1 90/2/1 91/3/1 
f 91/3/1 92/4/1 89/1/1 
f 93/1/2 94/2/2 90/3/2 
f 90/3/2 89/4/2 93/1/2 
f 95/1/3 96/2/3 92/3/3 
f 92/3/3 91/4/3 95/1/3 
usemtl laberintoCompletoEgipto_Material__25
f 97/1/1 98/2/1 99/3/1 
f 99/3/1 100/4/1 97/1/1 
f 101/1/2 102/2/2 98/3/2 
f 98/3/2 97/4/2 101/1/2 
f 103/1/3 104/2/3 100/3/3 
f 100/3/3 99/4/3 103/1/3 
f 105/1/1 106/2/1 107/3/1 
f 107/3/1 108/4/1 105/1/1 
f 109/1/2 110/2/2 106/3/2 
f 106/3/2 105/4/2 109/1/2 
f 111/1/3 112/2/3 108/3/3 
f 108/3/3 107/4/3 111/1/3 
usemtl laberintoCompletoEgipto_Material__28
f 113/1/1 114/2/1 115/3/1 
f 115/3/1 116/4/1 113/1/1 
f 117/1/2 118/2/2 114/3/2 
f 114/3/2 113/4/2 117/1/2 
f 119/1/3 120/2/3 116/3/3 
f 116/3/3 115/4/3 119/1/3 
usemtl laberintoCompletoEgipto_Material__25
f 121/1/1 122/2/1 123/3/1 
f 123/3/1 124/4/1 121/1/1 
f 125/1/2 126/2/2 122/3/2 
f 122/3/2 121/4/2 125/1/2 
f 127/1/3 128/2/3 124/3/3 
f 124/3/3 123/4/3 127/1/3 
f 129/1/1 130/2/1 131/3/1 
f 131/3/1 132/4/1 129/1/1 
f 133/1/2 134/2/2 130/3/2 
f 130/3/2 129/4/2 133/1/2 
f 135/1/3 136/2/3 132/3/3 
f 132/3/3 131/4/3 135/1/3 
usemtl laberintoCompletoEgipto_Material__27
f 137/1/1 138/2/1 139/3/1 
f 139/3/1 140/4/1 137/1/1 
f 141/1/5 142/2/5 140/3/5 
f 140/3/5 139/4/5 141/1/5 
f 142/1/3 143/2/3 137/3/3 
f 137/3/3 140/4/3 142/1/3 
# 110 faces

