# 3ds Max Wavefront OBJ Exporter v0.97b - (c)2007 guruware
# File Created: 23.05.2020 17:02:28

mtllib LE.mtl

#
# object laberintoCompletoEgipto_Box759
#

v  -8.8884 2.0174 4.8698
v  -8.8884 2.0174 2.7874
v  -10.9057 2.0174 2.7874
v  -10.9057 2.0174 4.8698
v  -8.8884 0.0000 2.7874
v  -10.9057 0.0000 2.7874
v  -10.9057 0.0000 4.8698
v  -6.7721 2.0174 4.8698
v  -6.7721 2.0174 2.7874
v  -8.7894 2.0174 2.7874
v  -8.7894 2.0174 4.8698
v  -6.7721 0.0000 4.8698
v  -6.7721 0.0000 2.7874
v  -8.7894 0.0000 2.7874
v  -8.8884 2.0174 7.0839
v  -8.8884 2.0174 5.0014
v  -10.9057 2.0174 5.0014
v  -10.9057 2.0174 7.0839
v  -10.9057 0.0000 5.0014
v  -10.9057 0.0000 7.0839
v  -6.7721 2.0174 7.0839
v  -6.7721 2.0174 5.0014
v  -8.7894 2.0174 5.0014
v  -8.7894 2.0174 7.0839
v  -6.7721 0.0000 7.0839
v  -6.7721 0.0000 5.0014
v  -8.8884 2.0174 9.2754
v  -8.8884 2.0174 7.1929
v  -10.9057 2.0174 7.1929
v  -10.9057 2.0174 9.2754
v  -8.8884 0.0000 9.2754
v  -8.8884 0.0000 7.1929
v  -10.9057 0.0000 7.1929
v  -10.9057 0.0000 9.2754
v  -6.7721 2.0174 9.2754
v  -6.7721 2.0174 7.1929
v  -8.7894 2.0174 7.1929
v  -8.7894 2.0174 9.2754
v  -8.8884 2.0174 11.4754
v  -8.8884 2.0174 9.3929
v  -10.9057 2.0174 9.3929
v  -10.9057 2.0174 11.4754
v  -10.9057 0.0000 9.3929
v  -10.9057 0.0000 11.4754
v  -8.8884 0.0000 11.4754
v  -6.7721 2.0174 11.4754
v  -6.7721 2.0174 9.3929
v  -8.7894 2.0174 9.3929
v  -8.7894 2.0174 11.4754
v  -8.7894 0.0000 11.4754
v  -6.7721 0.0000 11.4754
# 51 vertices

vn 0.0000 1.0000 -0.0000
vn 0.0000 0.0000 -1.0000
vn -1.0000 0.0000 -0.0000
vn 1.0000 0.0000 -0.0000
vn 0.0000 0.0000 1.0000
# 5 vertex normals

vt 0.0000 0.0000 0.0000
vt 1.0000 0.0000 0.0000
vt 1.0000 1.0000 0.0000
vt 0.0000 1.0000 0.0000
# 4 texture coords

o laberintoCompletoEgipto_Box759
g laberintoCompletoEgipto_Box759
usemtl laberintoCompletoEgipto_Material__25
s off
f 1/1/1 2/2/1 3/3/1 
f 3/3/1 4/4/1 1/1/1 
f 5/1/2 6/2/2 3/3/2 
f 3/3/2 2/4/2 5/1/2 
f 6/1/3 7/2/3 4/3/3 
f 4/3/3 3/4/3 6/1/3 
f 8/1/1 9/2/1 10/3/1 
f 10/3/1 11/4/1 8/1/1 
f 12/1/4 13/2/4 9/3/4 
f 9/3/4 8/4/4 12/1/4 
f 13/1/2 14/2/2 10/3/2 
f 10/3/2 9/4/2 13/1/2 
usemtl laberintoCompletoEgipto_Material__28
f 15/1/1 16/2/1 17/3/1 
f 17/3/1 18/4/1 15/1/1 
f 19/1/3 20/2/3 18/3/3 
f 18/3/3 17/4/3 19/1/3 
usemtl laberintoCompletoEgipto_Material__25
f 21/1/1 22/2/1 23/3/1 
f 23/3/1 24/4/1 21/1/1 
f 25/1/4 26/2/4 22/3/4 
f 22/3/4 21/4/4 25/1/4 
f 27/1/1 28/2/1 29/3/1 
f 29/3/1 30/4/1 27/1/1 
f 31/1/4 32/2/4 28/3/4 
f 28/3/4 27/4/4 31/1/4 
f 32/1/2 33/2/2 29/3/2 
f 29/3/2 28/4/2 32/1/2 
f 33/1/3 34/2/3 30/3/3 
f 30/3/3 29/4/3 33/1/3 
f 34/1/5 31/2/5 27/3/5 
f 27/3/5 30/4/5 34/1/5 
f 35/1/1 36/2/1 37/3/1 
f 37/3/1 38/4/1 35/1/1 
usemtl laberintoCompletoEgipto_Material__31
f 39/1/1 40/2/1 41/3/1 
f 41/3/1 42/4/1 39/1/1 
f 43/1/3 44/2/3 42/3/3 
f 42/3/3 41/4/3 43/1/3 
f 44/1/5 45/2/5 39/3/5 
f 39/3/5 42/4/5 44/1/5 
usemtl laberintoCompletoEgipto_Material__25
f 46/1/1 47/2/1 48/3/1 
f 48/3/1 49/4/1 46/1/1 
f 50/1/5 51/2/5 46/3/5 
f 46/3/5 49/4/5 50/1/5 
# 42 faces

