# 3ds Max Wavefront OBJ Exporter v0.97b - (c)2007 guruware
# File Created: 23.05.2020 17:03:26

mtllib LE.mtl

#
# object laberintoCompletoEgipto_Box704
#

v  17.6439 2.0174 -8.2833
v  17.6439 2.0174 -10.3657
v  15.6265 2.0174 -10.3657
v  15.6265 2.0174 -8.2833
v  17.6439 0.0000 -10.3657
v  15.6265 0.0000 -10.3657
v  15.6265 0.0000 -8.2833
v  19.7601 2.0174 -8.2833
v  19.7601 2.0174 -10.3657
v  17.7428 2.0174 -10.3657
v  17.7428 2.0174 -8.2833
v  19.7601 0.0000 -8.2833
v  19.7601 0.0000 -10.3657
v  17.7428 0.0000 -10.3657
v  17.6439 2.0174 -6.0833
v  17.6439 2.0174 -8.1657
v  15.6265 2.0174 -8.1657
v  15.6265 2.0174 -6.0833
v  15.6265 0.0000 -8.1657
v  15.6265 0.0000 -6.0833
v  19.7601 2.0174 -6.0833
v  19.7601 2.0174 -8.1657
v  17.7428 2.0174 -8.1657
v  17.7428 2.0174 -6.0833
v  19.7601 0.0000 -6.0833
v  19.7601 0.0000 -8.1657
v  17.6439 2.0174 -3.8833
v  17.6439 2.0174 -5.9657
v  15.6265 2.0174 -5.9657
v  15.6265 2.0174 -3.8833
v  15.6265 0.0000 -5.9657
v  15.6265 0.0000 -3.8833
v  19.7601 2.0174 -3.8833
v  19.7601 2.0174 -5.9657
v  17.7428 2.0174 -5.9657
v  17.7428 2.0174 -3.8833
v  19.7601 0.0000 -3.8833
v  19.7601 0.0000 -5.9657
v  19.7601 2.0174 -1.6833
v  19.7601 2.0174 -3.7657
v  17.7428 2.0174 -3.7657
v  17.7428 2.0174 -1.6833
v  19.7601 0.0000 -1.6833
v  19.7601 0.0000 -3.7657
v  17.7428 0.0000 -1.6833
v  17.6439 2.0174 -1.6833
v  17.6439 2.0174 -3.7657
v  15.6265 2.0174 -3.7657
v  15.6265 2.0174 -1.6833
v  15.6265 0.0000 -3.7657
v  15.6265 0.0000 -1.6833
v  17.6439 0.0000 -1.6833
# 52 vertices

vn 0.0000 1.0000 -0.0000
vn 0.0000 0.0000 -1.0000
vn -1.0000 0.0000 -0.0000
vn 1.0000 0.0000 -0.0000
vn 0.0000 0.0000 1.0000
# 5 vertex normals

vt 0.0000 0.0000 0.0000
vt 1.0000 0.0000 0.0000
vt 1.0000 1.0000 0.0000
vt 0.0000 1.0000 0.0000
# 4 texture coords

o laberintoCompletoEgipto_Box704
g laberintoCompletoEgipto_Box704
usemtl laberintoCompletoEgipto_Material__27
s off
f 1/1/1 2/2/1 3/3/1 
f 3/3/1 4/4/1 1/1/1 
f 5/1/2 6/2/2 3/3/2 
f 3/3/2 2/4/2 5/1/2 
f 6/1/3 7/2/3 4/3/3 
f 4/3/3 3/4/3 6/1/3 
usemtl laberintoCompletoEgipto_Material__25
f 8/1/1 9/2/1 10/3/1 
f 10/3/1 11/4/1 8/1/1 
f 12/1/4 13/2/4 9/3/4 
f 9/3/4 8/4/4 12/1/4 
f 13/1/2 14/2/2 10/3/2 
f 10/3/2 9/4/2 13/1/2 
f 15/1/1 16/2/1 17/3/1 
f 17/3/1 18/4/1 15/1/1 
f 19/1/3 20/2/3 18/3/3 
f 18/3/3 17/4/3 19/1/3 
usemtl laberintoCompletoEgipto_Material__31
f 21/1/1 22/2/1 23/3/1 
f 23/3/1 24/4/1 21/1/1 
f 25/1/4 26/2/4 22/3/4 
f 22/3/4 21/4/4 25/1/4 
usemtl laberintoCompletoEgipto_Material__28
f 27/1/1 28/2/1 29/3/1 
f 29/3/1 30/4/1 27/1/1 
f 31/1/3 32/2/3 30/3/3 
f 30/3/3 29/4/3 31/1/3 
usemtl laberintoCompletoEgipto_Material__25
f 33/1/1 34/2/1 35/3/1 
f 35/3/1 36/4/1 33/1/1 
f 37/1/4 38/2/4 34/3/4 
f 34/3/4 33/4/4 37/1/4 
usemtl laberintoCompletoEgipto_Material__33
f 39/1/1 40/2/1 41/3/1 
f 41/3/1 42/4/1 39/1/1 
f 43/1/4 44/2/4 40/3/4 
f 40/3/4 39/4/4 43/1/4 
f 45/1/5 43/2/5 39/3/5 
f 39/3/5 42/4/5 45/1/5 
usemtl laberintoCompletoEgipto_Material__25
f 46/1/1 47/2/1 48/3/1 
f 48/3/1 49/4/1 46/1/1 
f 50/1/3 51/2/3 49/3/3 
f 49/3/3 48/4/3 50/1/3 
f 51/1/5 52/2/5 46/3/5 
f 46/3/5 49/4/5 51/1/5 
# 40 faces

